<svg width="26" height="26" viewBox="0 0 26 26" fill="none" xmlns="http://www.w3.org/2000/svg">
<path d="M14.0642 2.99435C13.6836 2.69833 13.4933 2.55031 13.2831 2.49342C13.0977 2.44322 12.9023 2.44322 12.7169 2.49342C12.5067 2.55031 12.3164 2.69833 11.9358 2.99435L4.58834 8.70907C4.09719 9.09107 3.85161 9.28208 3.6747 9.52128C3.51798 9.73316 3.40123 9.97187 3.3302 10.2257C3.25 10.5122 3.25 10.8233 3.25 11.4455V19.2833C3.25 20.4968 3.25 21.1035 3.48615 21.567C3.69388 21.9747 4.02534 22.3061 4.43302 22.5138C4.8965 22.75 5.50322 22.75 6.71667 22.75H8.88333C9.1867 22.75 9.33838 22.75 9.45425 22.691C9.55617 22.639 9.63903 22.5562 9.69096 22.4542C9.75 22.3384 9.75 22.1867 9.75 21.8833V14.7333C9.75 14.1266 9.75 13.8232 9.86808 13.5915C9.97194 13.3877 10.1377 13.2219 10.3415 13.1181C10.5732 13 10.8766 13 11.4833 13H14.5167C15.1234 13 15.4268 13 15.6585 13.1181C15.8623 13.2219 16.0281 13.3877 16.1319 13.5915C16.25 13.8232 16.25 14.1266 16.25 14.7333V21.8833C16.25 22.1867 16.25 22.3384 16.309 22.4542C16.361 22.5562 16.4438 22.639 16.5458 22.691C16.6616 22.75 16.8133 22.75 17.1167 22.75H19.2833C20.4968 22.75 21.1035 22.75 21.567 22.5138C21.9747 22.3061 22.3061 21.9747 22.5138 21.567C22.75 21.1035 22.75 20.4968 22.75 19.2833V11.4455C22.75 10.8233 22.75 10.5122 22.6698 10.2257C22.5988 9.97187 22.482 9.73316 22.3253 9.52128C22.1484 9.28208 21.9028 9.09107 21.4117 8.70907L14.0642 2.99435Z" stroke="#343A40" stroke-width="2" stroke-linecap="round" stroke-linejoin="round"/>
</svg>
