<svg width="22" height="22" viewBox="0 0 22 22" fill="none" xmlns="http://www.w3.org/2000/svg">
<path d="M6.02938 22V20.625H10.3125V15.4633C9.10158 15.2469 8.04192 14.7405 7.1335 13.9439C6.22508 13.1473 5.59946 12.1614 5.25663 10.9862C3.80279 10.8148 2.563 10.2185 1.53725 9.19738C0.511501 8.17621 -0.000915439 6.94375 1.22768e-06 5.5V4.125C1.22768e-06 3.7565 0.137043 3.43521 0.411126 3.16112C0.685209 2.88704 1.0065 2.75 1.375 2.75H5.02425V0H16.9758V2.75H20.625C20.9935 2.75 21.3148 2.88704 21.5889 3.16112C21.863 3.43521 22 3.7565 22 4.125V5.5C22 6.94192 21.4876 8.17392 20.4628 9.196C19.4379 10.2181 18.1981 10.8139 16.7434 10.9835C16.4015 12.1614 15.7763 13.1482 14.8679 13.9439C13.9595 14.7395 12.8993 15.246 11.6875 15.4633V20.625H15.9706V22H6.02938ZM5.02425 9.5095V4.125H1.375V5.5C1.375 6.54683 1.72425 7.44654 2.42275 8.19913C3.12125 8.95171 3.98842 9.3885 5.02425 9.5095ZM11 14.1199C12.2696 14.1199 13.3448 13.6794 14.2258 12.7985C15.1076 11.9167 15.5485 10.841 15.5485 9.57138V1.375H6.4515V9.57275C6.4515 10.8414 6.89242 11.9167 7.77425 12.7985C8.65517 13.6794 9.73042 14.1199 11 14.1199ZM16.9758 9.50812C18.0125 9.38712 18.8797 8.95079 19.5773 8.19913C20.2748 7.44746 20.6241 6.54775 20.625 5.5V4.125H16.9758V9.50812Z" fill="black"/>
</svg>
