<svg width="25" height="26" viewBox="0 0 25 26" fill="none" xmlns="http://www.w3.org/2000/svg">
<path d="M12.4922 25.4981C13.2346 25.4981 13.8554 24.9076 13.8554 24.1808V14.1119H23.6368C24.3636 14.1119 25 13.4917 25 12.7494C25 12.0077 24.3636 11.4017 23.6368 11.4017H13.8554V1.31667C13.8554 0.5905 13.2346 0 12.4922 0C11.7506 0 11.1446 0.5905 11.1446 1.31732V11.4023H1.36319C0.63637 11.4023 0 12.0077 0 12.7494C0 13.4911 0.63637 14.1126 1.36319 14.1126H11.1446V24.1814C11.1446 24.9083 11.7506 25.4994 12.4922 25.4994" fill="black"/>
</svg>
