<svg width="24" height="24" viewBox="0 0 24 24" fill="none" xmlns="http://www.w3.org/2000/svg">
<path d="M4.59265 19.8916C5.25167 18.339 6.79033 17.25 8.58333 17.25H15.0833C16.8763 17.25 18.415 18.339 19.074 19.8916M16.1667 9.125C16.1667 11.5182 14.2266 13.4583 11.8333 13.4583C9.4401 13.4583 7.5 11.5182 7.5 9.125C7.5 6.73177 9.4401 4.79167 11.8333 4.79167C14.2266 4.79167 16.1667 6.73177 16.1667 9.125ZM22.6667 11.8333C22.6667 17.8164 17.8164 22.6667 11.8333 22.6667C5.85025 22.6667 1 17.8164 1 11.8333C1 5.85025 5.85025 1 11.8333 1C17.8164 1 22.6667 5.85025 22.6667 11.8333Z" stroke="#343A40" stroke-width="1.5" stroke-linecap="round" stroke-linejoin="round"/>
</svg>
