<svg width="9" height="21" viewBox="0 0 9 21" fill="none" xmlns="http://www.w3.org/2000/svg">
<path d="M2.05556 20.5556V13.3611H0V7.19445C0 6.62917 0.201445 6.14543 0.604334 5.74323C1.00722 5.34103 1.49096 5.13958 2.05556 5.1389H6.16667C6.73195 5.1389 7.21603 5.34034 7.61892 5.74323C8.02181 6.14612 8.22291 6.62986 8.22222 7.19445V13.3611H6.16667V20.5556H2.05556ZM4.11111 4.11112C3.54583 4.11112 3.06209 3.91002 2.65989 3.50781C2.25769 3.10561 2.05624 2.62153 2.05556 2.05556C2.05487 1.4896 2.25632 1.00586 2.65989 0.60434C3.06346 0.202822 3.5472 0.00137731 4.11111 6.94444e-06C4.67502 -0.00136343 5.1591 0.200081 5.56336 0.60434C5.96762 1.0086 6.16872 1.49234 6.16667 2.05556C6.16461 2.61878 5.96351 3.10287 5.56336 3.50781C5.16321 3.91276 4.67913 4.11386 4.11111 4.11112Z" fill="#0000FF"/>
</svg>
