<svg width="9" height="21" viewBox="0 0 9 21" fill="none" xmlns="http://www.w3.org/2000/svg">
<path d="M2.43751 20.5556V13.3611H0.381958V7.19445C0.381958 6.62917 0.583403 6.14543 0.986292 5.74323C1.38918 5.34103 1.87292 5.13958 2.43751 5.1389H6.54862C7.1139 5.1389 7.59799 5.34034 8.00087 5.74323C8.40376 6.14612 8.60487 6.62986 8.60418 7.19445V13.3611H6.54862V20.5556H2.43751ZM4.49307 4.11112C3.92779 4.11112 3.44405 3.91002 3.04185 3.50781C2.63964 3.10561 2.4382 2.62153 2.43751 2.05556C2.43683 1.4896 2.63827 1.00586 3.04185 0.60434C3.44542 0.202822 3.92916 0.00137731 4.49307 6.94444e-06C5.05698 -0.00136343 5.54106 0.200081 5.94532 0.60434C6.34958 1.0086 6.55068 1.49234 6.54862 2.05556C6.54657 2.61878 6.34547 3.10287 5.94532 3.50781C5.54517 3.91276 5.06109 4.11386 4.49307 4.11112Z" fill="#DEE2E6"/>
</svg>
