<svg width="11" height="21" viewBox="0 0 11 21" fill="none" xmlns="http://www.w3.org/2000/svg">
<path d="M7.1945 20.5556V14.3889H10.2778L7.14311 6.47501C6.97181 6.0639 6.7063 5.73843 6.34658 5.49862C5.98686 5.2588 5.58431 5.1389 5.13894 5.1389C4.69357 5.1389 4.29103 5.2588 3.9313 5.49862C3.57158 5.73843 3.30607 6.0639 3.13478 6.47501L5.34058e-05 14.3889H3.08339V20.5556H7.1945ZM5.13894 4.11112C5.70422 4.11112 6.18796 3.91002 6.59016 3.50781C6.99237 3.10561 7.19381 2.62153 7.1945 2.05556C7.19518 1.4896 6.99374 1.00586 6.59016 0.60434C6.18659 0.202822 5.70285 0.00137731 5.13894 6.94444e-06C4.57504 -0.00136343 4.09095 0.200081 3.68669 0.60434C3.28243 1.0086 3.08133 1.49234 3.08339 2.05556C3.08544 2.61878 3.28654 3.10287 3.68669 3.50781C4.08684 3.91276 4.57092 4.11386 5.13894 4.11112Z" fill="#FF0000"/>
</svg>
