<svg width="199" height="199" viewBox="0 0 199 199" fill="none" xmlns="http://www.w3.org/2000/svg">
<rect width="199" height="199" rx="36.7385" fill="black"/>
<path d="M33.7714 67.3548C33.484 67.3615 33.1992 67.4105 32.9261 67.5002C31.8497 67.8558 30.981 68.8489 30.5151 70.5046C30.0492 72.1603 30.0836 74.3832 30.8343 76.6363C31.5849 78.8894 32.892 80.6924 34.2594 81.7425C35.6269 82.7926 36.9191 83.0716 37.9956 82.7161C39.0721 82.3606 39.9402 81.3679 40.406 79.712C40.8719 78.0562 40.8377 75.8332 40.0868 73.5801C39.3362 71.3268 38.0293 69.5243 36.6617 68.4742C35.6361 67.6866 34.653 67.3326 33.7714 67.3548ZM68.9663 69.7224C68.3041 69.7524 67.7216 70.057 67.3877 70.7449L64.7787 75.4798L59.6634 81.662C59.6634 81.662 49.3629 79.8388 45.8791 80.3488C45.1559 80.4535 44.434 80.5662 43.7134 80.6869C43.0219 83.1085 41.4538 85.2011 39.0844 85.9837C36.8814 86.7114 34.5544 86.118 32.6243 84.8016C31.7508 85.4734 30.943 86.2522 30.2216 87.1609C26.6484 89.966 25.1729 91.8961 22.1659 93.8427C22.7558 90.9985 24.2101 88.1641 25.8065 85.8293C26.0686 85.446 28.006 83.8096 28.2725 83.4555C29.7038 80.6415 26.653 75.5689 23.7805 80.4207C23.5078 80.7994 22.3749 84.0327 22.0934 84.4573C19.3047 89.9809 17.5631 93.6069 19.1325 99.0618C19.6598 100.895 25.047 98.1233 29.7005 94.8218C34.7653 101.967 41.0596 104.122 44.6969 106.892C40.2451 122.847 46.6615 135.07 50.2988 146.638L44.7212 153.543C43.0244 155.577 54.0419 156.052 54.7501 153.687L56.2253 147.211C50.7086 129.893 55.6241 117.039 59.5969 107.465C70.1607 96.167 81.6457 91.7161 91.9152 82.821L100.584 80.9773C102.659 77.1665 102.542 75.2852 97.9327 75.1036L89.3366 78.4703C78.5091 84.5565 61.3982 88.6782 53.6513 97.2203C53.4797 94.5329 50.3219 88.1697 49.6518 86.0386C53.3588 86.531 58.3902 86.8467 61.2554 85.5254C64.3179 84.1133 67.6904 77.7193 67.6904 77.7193L71.4529 74.935C74.7182 73.0104 71.3323 69.616 68.9665 69.7227L68.9663 69.7224Z" fill="#8CF200"/>
<path fill-rule="evenodd" clip-rule="evenodd" d="M37.4912 76.7523L37.4818 76.7597L37.4318 76.8282L37.4149 76.842L37.3996 76.8451L37.3148 76.8473C37.303 76.8494 37.2962 76.855 37.2945 76.864L37.2957 76.8755L37.4927 77.29L37.5074 77.3065L37.5233 77.3139L37.6588 77.3323L37.6751 77.3286L37.6845 77.3189L37.7463 77.1969L37.7497 77.1757L37.745 77.1576L37.5163 76.7609C37.5085 76.7521 37.5001 76.7492 37.4912 76.7523ZM37.6864 76.5131L37.6751 76.5215L37.5458 76.7018L37.5413 76.7163L37.544 76.7282L37.7751 77.1273L37.7859 77.1362L37.7969 77.1388L38.0339 77.127C38.0476 77.1239 38.0555 77.1165 38.0575 77.105L38.0543 77.0897L37.7163 76.524C37.7072 76.5143 37.6972 76.5107 37.6864 76.5131ZM37.009 76.871C37.0035 76.8707 36.998 76.8725 36.9938 76.876C36.9896 76.8796 36.9869 76.8847 36.9864 76.8901L36.9876 76.9064L37.2611 77.5059C37.2677 77.517 37.277 77.5218 37.2892 77.5202L37.3024 77.5109L37.4468 77.3226L37.4523 77.31L37.4506 77.2976L37.2527 76.8811L37.2438 76.8712L37.2294 76.8667L37.009 76.871Z" fill="#8CF200"/>
<path fill-rule="evenodd" clip-rule="evenodd" d="M25.5567 71.4498L23.3974 65.6974C23.242 65.2835 23.1737 64.8421 23.1967 64.4007C23.2197 63.9592 23.3335 63.5273 23.5309 63.1318C23.7284 62.7363 24.0053 62.3858 24.3443 62.1022C24.6833 61.8186 25.0772 61.6079 25.5013 61.4834C26.4001 61.2199 27.4852 61.0716 28.3164 60.6354C29.1476 60.1993 29.8862 59.3906 30.6137 58.8007C30.9572 58.5227 31.3543 58.3184 31.7802 58.2007C32.2062 58.083 32.6519 58.0544 33.0894 58.1166C33.5269 58.1789 33.9469 58.3307 34.3231 58.5626C34.6993 58.7945 35.0236 59.1014 35.2759 59.4643L38.7845 64.5087C40.0038 64.2125 42.0738 63.7919 42.8032 65.1819C43.5978 66.6963 41.7599 68.2972 40.7481 69.1524C39.3082 70.3703 37.2147 71.7447 34.8084 73.0074C32.4022 74.27 30.0817 75.2118 28.2614 75.7047C26.9817 76.0519 24.621 76.6541 23.8264 75.1398C23.097 73.7497 24.6193 72.2854 25.5567 71.4498ZM27.7003 73.637C27.0381 73.8163 26.5027 73.9145 26.1017 73.9458C26.3553 73.6336 26.7399 73.2479 27.2642 72.8058C28.5532 71.7155 30.5065 70.4244 32.8169 69.212C35.1273 67.9996 37.2996 67.126 38.9292 66.6847C39.5914 66.5054 40.1268 66.4072 40.5279 66.3759C40.2751 66.6876 39.8892 67.0728 39.3654 67.5159C38.0763 68.6062 36.1231 69.8973 33.8127 71.1097C31.5022 72.3221 29.3299 73.1957 27.7003 73.637Z" fill="#8CF200"/>
<path fill-rule="evenodd" clip-rule="evenodd" d="M25.1631 86.7774L31.7455 83.3321L32.4604 84.6981C32.4902 84.7193 32.626 84.8285 32.9824 84.9658C33.4664 85.1539 34.1586 85.3178 34.9769 85.3935C36.6357 85.5444 38.5 85.3155 39.8899 84.588C41.2798 83.8605 42.5333 82.4575 43.3517 81.0101C43.7559 80.2945 44.0158 79.6323 44.14 79.1258C44.2273 78.7563 44.215 78.5825 44.2146 78.546L43.4996 77.1799L50.0819 73.7347L61.2443 78.525L64.15 92.9239L57.444 93.0932L70.4154 98.6767L43.4996 119.4L36.8743 103.86L32.9134 109.273L22.7363 98.6767L25.1631 86.7774Z" fill="#8CF200"/>
<path d="M136.374 40.9312C138.578 40.9312 138.688 42.5844 139.79 43.907C140.892 45.2296 141.444 46.0011 141.884 48.2054C142.105 50.1893 140.892 52.063 140.011 54.7081C139.239 57.3533 138.688 58.3452 138.247 60.77C137.696 63.4152 135.271 66.0603 133.839 68.9259C132.406 71.7915 129.651 71.7915 129.099 73.3345C128.328 74.8776 123.919 77.6329 122.927 79.2862C121.935 81.0496 117.306 84.1356 117.306 84.1356C117.306 84.1356 111.245 88.7647 109.15 89.7566C106.946 90.969 105.072 92.2916 102.207 92.9529C99.4515 93.6142 93.4999 91.4099 93.4999 89.7566C93.4999 88.2136 96.5859 87.6625 96.9165 87.1115C97.3574 86.7808 99.8924 84.1356 101.986 82.8131C103.64 81.3803 104.521 81.6007 105.513 81.0496C106.505 80.3883 107.607 79.6168 108.269 78.8453C109.15 78.0738 113.559 75.5388 114.661 74.3265C115.543 73.2243 118.409 72.2324 120.282 69.9179C121.935 67.934 124.47 64.6275 123.809 64.1867C122.927 63.5254 122.707 64.1867 121.825 64.8479C120.613 65.5092 118.519 66.2807 117.747 66.7216C115.984 67.2727 107.607 68.3748 107.607 68.7055C107.607 68.9259 103.97 70.5792 102.317 71.02C100.443 71.2404 98.0187 71.2404 97.5778 71.5711C97.137 72.1222 90.1934 70.5792 89.4219 67.934C88.3197 65.399 89.973 65.399 90.9649 64.1867C91.7364 63.1947 95.594 62.4232 95.594 62.4232H101.325C101.986 62.2028 102.207 62.2028 103.64 61.5415C105.072 60.6598 105.844 60.6598 106.726 60.6598C107.718 60.6598 118.629 58.7861 120.723 57.684C122.927 56.8022 126.124 55.149 127.997 53.7162C129.761 52.3936 128.548 50.52 128.548 50.52C128.548 50.52 128.659 47.8748 128.548 47.3237C128.438 46.7726 122.046 46.3318 119.952 46.3318C118.078 46.1113 107.607 48.5361 107.056 48.5361C106.726 48.5361 101.435 49.0872 95.1531 48.7565C89.0912 48.5361 89.0912 43.6866 89.5321 42.364C90.1934 40.9312 92.6181 39.7188 93.059 39.8291C93.3896 40.0495 99.1208 39.7188 100.443 39.8291C101.435 40.1597 101.325 40.3801 101.325 40.3801C101.325 40.3801 103.309 40.3801 104.521 40.7108C105.513 41.0414 109.15 40.7108 109.15 40.7108C109.15 40.7108 116.535 40.4904 118.078 39.4984C119.731 38.3963 120.062 38.9473 120.062 38.9473H127.005C127.005 38.9473 129.43 38.8371 131.634 40.0495C133.618 40.9312 136.374 40.9312 136.374 40.9312ZM131.634 94.1652L135.051 93.8346H137.476L140.231 93.1733L141.333 92.1814L142.876 91.8507H146.403C146.403 91.8507 148.828 92.8427 149.489 91.8507C150.261 90.8588 153.457 91.0792 154.339 90.8588C155.772 90.1975 157.866 90.8588 158.747 90.8588C159.85 90.8588 161.282 90.8588 161.944 91.8507C162.715 92.8427 163.597 93.8346 163.597 94.1652C163.927 94.9368 165.03 95.8185 166.022 99.0147C166.352 100.007 166.022 102.101 166.022 102.101V113.343C166.022 114.776 165.581 116.208 164.699 117.2C163.597 118.192 164.699 119.845 164.699 119.845C164.699 119.845 165.691 122.711 164.919 123.593L164.038 126.899L161.282 128.883H158.196L155.441 127.45V113.012C155.441 113.012 154.339 107.171 155.11 106.289C155.772 104.856 155.11 101.439 155.11 101.439L153.788 99.0147H148.387L146.734 99.7862C146.734 99.7862 145.522 100.668 144.419 100.888C141.995 101.329 141.554 100.337 140.231 101.439C139.129 102.101 138.247 101.439 137.145 101.439C135.933 101.109 135.051 101.439 135.051 101.439L131.634 102.101C131.634 102.101 129.43 103.093 128.879 103.423C128.218 104.195 124.36 103.534 124.36 103.534C124.36 103.534 122.376 104.195 121.605 104.195H120.172C120.172 104.195 117.527 104.195 115.433 105.628C113.008 106.509 112.677 106.179 111.355 107.281H107.167C105.403 107.612 103.199 107.281 103.199 107.281C103.199 107.281 100.223 106.509 99.5617 106.069C98.68 105.517 97.2472 103.534 97.2472 103.534V101.66L98.3493 99.3454C99.2311 97.3615 100.774 96.7002 100.774 96.7002L103.419 96.3695C103.419 96.3695 105.183 96.9206 107.167 96.3695C109.371 95.9287 111.355 96.7002 112.016 96.3695H114.771C114.771 96.3695 117.086 96.3695 118.188 94.8265H120.172C121.605 94.2755 122.707 94.8265 122.707 94.8265L126.013 93.5039L129.981 94.1652H131.634ZM155.11 33.4366H159.519C159.96 33.1059 161.613 34.4285 161.613 34.4285L163.597 35.4204L165.03 37.9554C165.03 37.9554 165.911 39.6086 165.911 40.1597C166.242 41.2619 165.911 42.364 165.911 43.2457V48.9769C165.691 51.6221 165.911 51.6221 165.911 51.6221V54.9286L165.03 57.1329C164.258 59.227 165.03 58.235 165.03 59.5576C165.03 61.3211 163.597 62.6436 163.597 62.6436C163.597 62.6436 164.038 65.8399 164.038 66.5012V69.477L163.817 77.0819C164.038 79.5066 163.707 81.3803 163.046 82.3722C162.164 83.4744 160.952 84.2459 159.188 84.4663H155.11L153.677 83.2539L153.347 82.4824L153.898 80.9394C154.449 79.727 153.677 78.8453 153.898 77.6329V65.399L155.11 60.9904C155.11 60.9904 154.78 57.684 155.11 57.1329C155.441 56.1409 155.11 54.9286 155.11 50.4097V44.7887L153.898 43.2457L153.347 40.1597C153.347 40.1597 153.677 39.1678 153.347 37.9554C153.016 36.743 153.347 34.9796 153.347 34.9796L155.11 33.4366Z" fill="#8CF200"/>
<mask id="path-7-outside-1_65_83" maskUnits="userSpaceOnUse" x="57.1692" y="110.908" width="93" height="48" fill="black">
<rect fill="white" x="57.1692" y="110.908" width="93" height="48"/>
<path d="M77.2598 146.892V133.629H67.965V146.892H60.3969V117.831C60.3969 115.37 62.197 114.084 64.1809 114.084C66.1648 114.084 67.965 115.37 67.965 117.831V127.236H77.2598V117.831C77.2598 115.37 79.06 114.084 81.0439 114.084C83.0278 114.084 84.8279 115.37 84.8279 117.831V146.892H77.2598ZM88.8468 117.464C88.8468 115.039 90.6102 114.084 92.6676 114.084C94.7249 114.084 96.4884 115.039 96.4884 117.464C96.4884 119.889 94.7249 120.844 92.6676 120.844C90.6102 120.844 88.8468 119.889 88.8468 117.464ZM88.8835 146.892V126.098C88.8835 123.563 90.6102 122.424 92.6676 122.424C94.7249 122.424 96.4516 123.563 96.4516 126.098V146.892H88.8835ZM121.192 125.84V145.532C121.192 149.573 119.502 154.57 109.619 154.974C108.26 155.048 105.504 154.68 104.292 153.982C103.19 153.321 102.639 151.741 103.116 150.455C103.557 149.28 104.769 148.508 106.019 148.692C107.084 148.839 108.26 149.022 109.619 149.022C112.742 149.022 114.101 147.369 114.101 145.716V144.871C112.815 146.157 111.052 146.892 108.811 146.892C103.961 146.892 99.9567 144.577 99.9567 136.899V132.306C99.9567 124.555 103.998 122.167 108.847 122.167C110.684 122.167 112.705 122.865 114.101 124.224C114.689 122.865 116.048 122.167 117.518 122.167C119.465 122.167 121.192 123.416 121.192 125.84ZM107.525 131.792V137.56C107.525 140.058 109.362 140.903 110.648 140.903C111.897 140.903 113.807 140.095 113.807 137.744V131.608C113.807 129.257 111.897 128.449 110.648 128.449C109.362 128.449 107.525 129.294 107.525 131.792ZM146.136 146.892H138.568V131.829C138.568 129.331 136.878 128.486 135.555 128.486C134.269 128.486 132.506 129.294 132.506 131.645V146.892H125.048V117.758C125.048 115.333 126.848 114.084 128.795 114.084C130.742 114.084 132.506 115.333 132.506 117.758V123.93C133.792 122.828 135.445 122.167 137.392 122.167C142.205 122.167 146.136 124.555 146.136 132.306V146.892Z"/>
</mask>
<path d="M77.2598 146.892V133.629H67.965V146.892H60.3969V117.831C60.3969 115.37 62.197 114.084 64.1809 114.084C66.1648 114.084 67.965 115.37 67.965 117.831V127.236H77.2598V117.831C77.2598 115.37 79.06 114.084 81.0439 114.084C83.0278 114.084 84.8279 115.37 84.8279 117.831V146.892H77.2598ZM88.8468 117.464C88.8468 115.039 90.6102 114.084 92.6676 114.084C94.7249 114.084 96.4884 115.039 96.4884 117.464C96.4884 119.889 94.7249 120.844 92.6676 120.844C90.6102 120.844 88.8468 119.889 88.8468 117.464ZM88.8835 146.892V126.098C88.8835 123.563 90.6102 122.424 92.6676 122.424C94.7249 122.424 96.4516 123.563 96.4516 126.098V146.892H88.8835ZM121.192 125.84V145.532C121.192 149.573 119.502 154.57 109.619 154.974C108.26 155.048 105.504 154.68 104.292 153.982C103.19 153.321 102.639 151.741 103.116 150.455C103.557 149.28 104.769 148.508 106.019 148.692C107.084 148.839 108.26 149.022 109.619 149.022C112.742 149.022 114.101 147.369 114.101 145.716V144.871C112.815 146.157 111.052 146.892 108.811 146.892C103.961 146.892 99.9567 144.577 99.9567 136.899V132.306C99.9567 124.555 103.998 122.167 108.847 122.167C110.684 122.167 112.705 122.865 114.101 124.224C114.689 122.865 116.048 122.167 117.518 122.167C119.465 122.167 121.192 123.416 121.192 125.84ZM107.525 131.792V137.56C107.525 140.058 109.362 140.903 110.648 140.903C111.897 140.903 113.807 140.095 113.807 137.744V131.608C113.807 129.257 111.897 128.449 110.648 128.449C109.362 128.449 107.525 129.294 107.525 131.792ZM146.136 146.892H138.568V131.829C138.568 129.331 136.878 128.486 135.555 128.486C134.269 128.486 132.506 129.294 132.506 131.645V146.892H125.048V117.758C125.048 115.333 126.848 114.084 128.795 114.084C130.742 114.084 132.506 115.333 132.506 117.758V123.93C133.792 122.828 135.445 122.167 137.392 122.167C142.205 122.167 146.136 124.555 146.136 132.306V146.892Z" fill="black"/>
<path d="M77.2598 146.892H74.1983V149.953H77.2598V146.892ZM77.2598 133.629H80.3214V130.567H77.2598V133.629ZM67.965 133.629V130.567H64.9034V133.629H67.965ZM67.965 146.892V149.953H71.0265V146.892H67.965ZM60.3969 146.892H57.3353V149.953H60.3969V146.892ZM67.965 127.236H64.9034V130.298H67.965V127.236ZM77.2598 127.236V130.298H80.3214V127.236H77.2598ZM84.8279 146.892V149.953H87.8895V146.892H84.8279ZM80.3214 146.892V133.629H74.1983V146.892H80.3214ZM77.2598 130.567H67.965V136.691H77.2598V130.567ZM64.9034 133.629V146.892H71.0265V133.629H64.9034ZM67.965 143.83H60.3969V149.953H67.965V143.83ZM63.4584 146.892V117.831H57.3353V146.892H63.4584ZM63.4584 117.831C63.4584 117.594 63.5006 117.466 63.5237 117.412C63.5461 117.36 63.5696 117.331 63.5947 117.309C63.6501 117.259 63.8307 117.146 64.1809 117.146V111.023C62.5473 111.023 60.8358 111.552 59.4952 112.761C58.1068 114.012 57.3353 115.798 57.3353 117.831H63.4584ZM64.1809 117.146C64.5311 117.146 64.7117 117.259 64.7672 117.309C64.7922 117.331 64.8157 117.36 64.8382 117.412C64.8612 117.466 64.9034 117.594 64.9034 117.831H71.0265C71.0265 115.798 70.2551 114.012 68.8666 112.761C67.526 111.552 65.8146 111.023 64.1809 111.023V117.146ZM64.9034 117.831V127.236H71.0265V117.831H64.9034ZM67.965 130.298H77.2598V124.175H67.965V130.298ZM80.3214 127.236V117.831H74.1983V127.236H80.3214ZM80.3214 117.831C80.3214 117.594 80.3636 117.466 80.3866 117.412C80.4091 117.36 80.4326 117.331 80.4576 117.309C80.5131 117.259 80.6937 117.146 81.0439 117.146V111.023C79.4102 111.023 77.6988 111.552 76.3582 112.761C74.9697 114.012 74.1983 115.798 74.1983 117.831H80.3214ZM81.0439 117.146C81.3941 117.146 81.5747 117.259 81.6302 117.309C81.6552 117.331 81.6787 117.36 81.7011 117.412C81.7242 117.466 81.7664 117.594 81.7664 117.831H87.8895C87.8895 115.798 87.118 114.012 85.7296 112.761C84.389 111.552 82.6776 111.023 81.0439 111.023V117.146ZM81.7664 117.831V146.892H87.8895V117.831H81.7664ZM84.8279 143.83H77.2598V149.953H84.8279V143.83ZM88.8835 146.892H85.822V149.953H88.8835V146.892ZM96.4516 146.892V149.953H99.5132V146.892H96.4516ZM91.9083 117.464C91.9083 117.232 91.9493 117.163 91.9373 117.189C91.9216 117.223 91.8887 117.263 91.8631 117.283C91.8485 117.294 91.8885 117.259 92.0289 117.219C92.1712 117.179 92.3835 117.146 92.6676 117.146V111.023C91.2242 111.023 89.5207 111.35 88.1083 112.446C86.5747 113.637 85.7852 115.424 85.7852 117.464H91.9083ZM92.6676 117.146C92.9516 117.146 93.164 117.179 93.3062 117.219C93.4467 117.259 93.4866 117.294 93.4721 117.283C93.4465 117.263 93.4135 117.223 93.3979 117.189C93.3859 117.163 93.4268 117.232 93.4268 117.464H99.5499C99.5499 115.424 98.7604 113.637 97.2269 112.446C95.8145 111.35 94.111 111.023 92.6676 111.023V117.146ZM93.4268 117.464C93.4268 117.696 93.3859 117.765 93.3979 117.739C93.4135 117.705 93.4465 117.665 93.4721 117.645C93.4866 117.634 93.4467 117.67 93.3062 117.709C93.164 117.749 92.9516 117.782 92.6676 117.782V123.906C94.111 123.906 95.8145 123.578 97.2269 122.482C98.7604 121.291 99.5499 119.504 99.5499 117.464H93.4268ZM92.6676 117.782C92.3835 117.782 92.1712 117.749 92.0289 117.709C91.8885 117.67 91.8485 117.634 91.8631 117.645C91.8887 117.665 91.9216 117.705 91.9373 117.739C91.9493 117.765 91.9083 117.696 91.9083 117.464H85.7852C85.7852 119.504 86.5747 121.291 88.1083 122.482C89.5207 123.578 91.2242 123.906 92.6676 123.906V117.782ZM91.9451 146.892V126.098H85.822V146.892H91.9451ZM91.9451 126.098C91.9451 125.813 91.9929 125.676 92.0093 125.637C92.0181 125.616 92.0234 125.609 92.0218 125.612C92.0215 125.612 92.0206 125.613 92.0194 125.614C92.0183 125.616 92.0176 125.616 92.0179 125.616C92.018 125.616 92.0257 125.609 92.0456 125.598C92.066 125.587 92.1006 125.57 92.1531 125.553C92.2609 125.518 92.4311 125.485 92.6676 125.485V119.362C91.1073 119.362 89.3764 119.794 87.9902 121.004C86.5383 122.272 85.822 124.084 85.822 126.098H91.9451ZM92.6676 125.485C92.904 125.485 93.0743 125.518 93.182 125.553C93.2345 125.57 93.2692 125.587 93.2896 125.598C93.3095 125.609 93.3171 125.616 93.3173 125.616C93.3176 125.616 93.3169 125.616 93.3157 125.614C93.3146 125.613 93.3137 125.612 93.3133 125.612C93.3118 125.609 93.317 125.616 93.3258 125.637C93.3423 125.676 93.3901 125.813 93.3901 126.098H99.5132C99.5132 124.084 98.7969 122.272 97.345 121.004C95.9588 119.794 94.2278 119.362 92.6676 119.362V125.485ZM93.3901 126.098V146.892H99.5132V126.098H93.3901ZM96.4516 143.83H88.8835V149.953H96.4516V143.83ZM109.619 154.974L109.494 151.915L109.474 151.916L109.454 151.917L109.619 154.974ZM104.292 153.982L102.717 156.607L102.74 156.622L102.764 156.635L104.292 153.982ZM103.116 150.455L100.25 149.38L100.246 149.389L103.116 150.455ZM106.019 148.692L105.573 151.721L105.587 151.723L105.6 151.725L106.019 148.692ZM114.101 144.871H117.163V137.48L111.936 142.706L114.101 144.871ZM114.101 124.224L111.965 126.417L115.148 129.516L116.911 125.439L114.101 124.224ZM118.13 125.84V145.532H124.253V125.84H118.13ZM118.13 145.532C118.13 147.172 117.783 148.538 116.857 149.546C115.943 150.54 113.963 151.732 109.494 151.915L109.744 158.033C115.157 157.812 118.963 156.304 121.366 153.688C123.755 151.087 124.253 147.933 124.253 145.532H118.13ZM109.454 151.917C109.068 151.938 108.276 151.894 107.408 151.748C106.992 151.678 106.613 151.594 106.303 151.503C106.15 151.458 106.029 151.417 105.939 151.381C105.845 151.344 105.811 151.324 105.819 151.329L102.764 156.635C103.866 157.27 105.311 157.605 106.393 157.787C107.545 157.98 108.811 158.084 109.784 158.031L109.454 151.917ZM105.867 151.357C105.956 151.41 105.998 151.46 106.01 151.476C106.022 151.492 106.018 151.491 106.012 151.472C106.009 151.464 106.007 151.456 106.006 151.449C106.005 151.443 106.005 151.439 106.005 151.44C106.005 151.441 106.005 151.47 105.986 151.521L100.246 149.389C99.2765 152 100.3 155.157 102.717 156.607L105.867 151.357ZM105.983 151.53C105.957 151.598 105.917 151.642 105.87 151.67C105.819 151.702 105.714 151.741 105.573 151.721L106.464 145.663C103.69 145.255 101.161 146.95 100.25 149.38L105.983 151.53ZM105.6 151.725C106.603 151.863 108.006 152.084 109.619 152.084V145.961C108.513 145.961 107.565 145.815 106.437 145.659L105.6 151.725ZM109.619 152.084C111.708 152.084 113.595 151.527 115.013 150.323C116.45 149.102 117.163 147.412 117.163 145.716H111.039C111.039 145.674 111.072 145.636 111.05 145.655C111.007 145.691 110.653 145.961 109.619 145.961V152.084ZM117.163 145.716V144.871H111.039V145.716H117.163ZM111.936 142.706C111.286 143.356 110.332 143.83 108.811 143.83V149.953C111.772 149.953 114.344 148.958 116.266 147.036L111.936 142.706ZM108.811 143.83C106.823 143.83 105.508 143.354 104.682 142.563C103.881 141.796 103.018 140.232 103.018 136.899H96.8952C96.8952 141.243 98.0348 144.676 100.448 146.986C102.837 149.272 105.948 149.953 108.811 149.953V143.83ZM103.018 136.899V132.306H96.8952V136.899H103.018ZM103.018 132.306C103.018 128.936 103.89 127.326 104.714 126.528C105.556 125.712 106.881 125.228 108.847 125.228V119.105C105.964 119.105 102.844 119.815 100.453 122.131C98.0438 124.465 96.8952 127.925 96.8952 132.306H103.018ZM108.847 125.228C109.995 125.228 111.214 125.686 111.965 126.417L116.237 122.03C114.196 120.043 111.374 119.105 108.847 119.105V125.228ZM116.911 125.439C116.928 125.401 116.946 125.374 117.009 125.337C117.089 125.291 117.258 125.228 117.518 125.228V119.105C115.123 119.105 112.471 120.28 111.291 123.009L116.911 125.439ZM117.518 125.228C117.854 125.228 117.998 125.335 118.022 125.357C118.033 125.367 118.049 125.383 118.068 125.428C118.088 125.476 118.13 125.601 118.13 125.84H124.253C124.253 123.851 123.518 122.081 122.147 120.832C120.822 119.623 119.128 119.105 117.518 119.105V125.228ZM104.463 131.792V137.56H110.586V131.792H104.463ZM104.463 137.56C104.463 139.644 105.27 141.36 106.629 142.508C107.889 143.572 109.405 143.965 110.648 143.965V137.842C110.65 137.842 110.623 137.84 110.59 137.829C110.56 137.819 110.56 137.813 110.579 137.829C110.589 137.838 110.601 137.85 110.612 137.864C110.623 137.879 110.628 137.888 110.627 137.888C110.627 137.887 110.618 137.866 110.608 137.817C110.598 137.768 110.586 137.684 110.586 137.56H104.463ZM110.648 143.965C111.845 143.965 113.329 143.598 114.583 142.616C115.954 141.543 116.869 139.866 116.869 137.744H110.746C110.746 137.829 110.737 137.877 110.733 137.893C110.73 137.909 110.729 137.904 110.738 137.885C110.747 137.867 110.76 137.846 110.776 137.827C110.791 137.809 110.803 137.799 110.809 137.794C110.817 137.788 110.797 137.805 110.743 137.822C110.718 137.83 110.693 137.835 110.672 137.839C110.65 137.842 110.641 137.842 110.648 137.842V143.965ZM116.869 137.744V131.608H110.746V137.744H116.869ZM116.869 131.608C116.869 129.486 115.954 127.809 114.583 126.736C113.329 125.755 111.845 125.387 110.648 125.387V131.51C110.641 131.51 110.65 131.51 110.672 131.513C110.693 131.517 110.718 131.522 110.743 131.53C110.797 131.547 110.817 131.564 110.809 131.558C110.803 131.554 110.791 131.543 110.776 131.525C110.76 131.506 110.747 131.485 110.738 131.467C110.729 131.448 110.73 131.443 110.733 131.459C110.737 131.475 110.746 131.523 110.746 131.608H116.869ZM110.648 125.387C109.405 125.387 107.889 125.78 106.629 126.845C105.27 127.992 104.463 129.708 104.463 131.792H110.586C110.586 131.668 110.598 131.584 110.608 131.535C110.618 131.486 110.627 131.465 110.627 131.464C110.628 131.464 110.623 131.473 110.612 131.488C110.601 131.502 110.589 131.514 110.579 131.523C110.56 131.539 110.56 131.533 110.59 131.523C110.623 131.512 110.65 131.51 110.648 131.51V125.387ZM146.136 146.892V149.953H149.197V146.892H146.136ZM138.568 146.892H135.506V149.953H138.568V146.892ZM132.506 146.892V149.953H135.567V146.892H132.506ZM125.048 146.892H121.986V149.953H125.048V146.892ZM132.506 123.93H129.444V130.586L134.498 126.255L132.506 123.93ZM146.136 143.83H138.568V149.953H146.136V143.83ZM141.629 146.892V131.829H135.506V146.892H141.629ZM141.629 131.829C141.629 129.832 140.922 128.118 139.594 126.934C138.342 125.819 136.817 125.424 135.555 125.424V131.547C135.568 131.547 135.584 131.55 135.59 131.552C135.591 131.553 135.562 131.543 135.521 131.507C135.501 131.489 135.484 131.469 135.47 131.45C135.457 131.432 135.454 131.422 135.456 131.428C135.46 131.437 135.506 131.551 135.506 131.829H141.629ZM135.555 125.424C134.339 125.424 132.848 125.793 131.601 126.821C130.25 127.935 129.444 129.613 129.444 131.645H135.567C135.567 131.543 135.577 131.48 135.583 131.45C135.589 131.42 135.593 131.416 135.587 131.43C135.58 131.444 135.568 131.466 135.55 131.49C135.531 131.514 135.512 131.532 135.496 131.546C135.465 131.572 135.455 131.569 135.483 131.56C135.495 131.556 135.51 131.552 135.526 131.55C135.543 131.547 135.553 131.547 135.555 131.547V125.424ZM129.444 131.645V146.892H135.567V131.645H129.444ZM132.506 143.83H125.048V149.953H132.506V143.83ZM128.109 146.892V117.758H121.986V146.892H128.109ZM128.109 117.758C128.109 117.536 128.149 117.423 128.167 117.382C128.185 117.342 128.202 117.321 128.224 117.302C128.275 117.256 128.453 117.146 128.795 117.146V111.023C127.19 111.023 125.495 111.536 124.159 112.722C122.771 113.954 121.986 115.726 121.986 117.758H128.109ZM128.795 117.146C129.135 117.146 129.296 117.254 129.334 117.288C129.35 117.303 129.366 117.321 129.385 117.364C129.404 117.408 129.444 117.527 129.444 117.758H135.567C135.567 115.747 134.808 113.976 133.428 112.735C132.097 111.539 130.403 111.023 128.795 111.023V117.146ZM129.444 117.758V123.93H135.567V117.758H129.444ZM134.498 126.255C135.232 125.626 136.179 125.228 137.392 125.228V119.105C134.711 119.105 132.352 120.03 130.513 121.606L134.498 126.255ZM137.392 125.228C139.333 125.228 140.609 125.708 141.417 126.507C142.218 127.299 143.074 128.914 143.074 132.306H149.197C149.197 127.947 148.089 124.492 145.721 122.152C143.36 119.819 140.264 119.105 137.392 119.105V125.228ZM143.074 132.306V146.892H149.197V132.306H143.074Z" fill="#8CF200" mask="url(#path-7-outside-1_65_83)"/>
</svg>
