<svg width="73" height="73" viewBox="0 0 73 73" fill="none" xmlns="http://www.w3.org/2000/svg">
<rect width="73" height="73" rx="13.4769" fill="black"/>
<path d="M12.3885 24.7081C12.283 24.7106 12.1785 24.7286 12.0783 24.7615C11.6835 24.8919 11.3648 25.2562 11.1939 25.8636C11.023 26.4709 11.0356 27.2864 11.311 28.1129C11.5864 28.9394 12.0658 29.6008 12.5674 29.986C13.0691 30.3712 13.5431 30.4736 13.938 30.3432C14.3329 30.2127 14.6514 29.8486 14.8222 29.2411C14.9931 28.6338 14.9806 27.8183 14.7051 26.9918C14.4298 26.1652 13.9504 25.504 13.4487 25.1187C13.0725 24.8298 12.7118 24.7 12.3885 24.7081ZM25.2991 25.5766C25.0562 25.5876 24.8425 25.6994 24.72 25.9517L23.763 27.6886L21.8865 29.9565C21.8865 29.9565 18.1079 29.2877 16.8299 29.4747C16.5647 29.5132 16.2999 29.5545 16.0355 29.5988C15.7818 30.4871 15.2066 31.2548 14.3374 31.5418C13.5293 31.8088 12.6757 31.5911 11.9676 31.1082C11.6472 31.3546 11.3509 31.6403 11.0862 31.9737C9.77547 33.0027 9.23422 33.7107 8.13115 34.4248C8.34755 33.3814 8.88101 32.3417 9.46663 31.4852C9.56279 31.3446 10.2735 30.7443 10.3713 30.6144C10.8963 29.5821 9.77716 27.7213 8.72343 29.5011C8.62341 29.64 8.2078 30.8262 8.10455 30.9819C7.08156 33.0082 6.44267 34.3383 7.01839 36.3393C7.21184 37.0116 9.18803 35.995 10.8951 34.7839C12.753 37.4049 15.062 38.1956 16.3963 39.2115C14.7632 45.0645 17.117 49.5483 18.4512 53.792L16.4052 56.3249C15.7827 57.0709 19.8243 57.2453 20.0841 56.3776L20.6253 54.0023C18.6016 47.6493 20.4048 42.9339 21.8621 39.4218C25.7373 35.2774 29.9504 33.6447 33.7176 30.3816L36.8974 29.7053C37.6589 28.3074 37.6159 27.6172 35.925 27.5506L32.7717 28.7857C28.7998 31.0183 22.5229 32.5303 19.6811 35.6638C19.6181 34.678 18.4597 32.3437 18.2139 31.562C19.5738 31.7426 21.4195 31.8584 22.4705 31.3737C23.594 30.8557 24.8311 28.5102 24.8311 28.5102L26.2113 27.4888C27.4091 26.7828 26.1671 25.5376 25.2992 25.5768L25.2991 25.5766Z" fill="#8CF200"/>
<path fill-rule="evenodd" clip-rule="evenodd" d="M13.753 28.1552L13.7495 28.1579L13.7312 28.183L13.725 28.1881L13.7194 28.1892L13.6882 28.19C13.6839 28.1908 13.6814 28.1929 13.6808 28.1962L13.6812 28.2004L13.7535 28.3524L13.7589 28.3585L13.7647 28.3612L13.8145 28.3679L13.8204 28.3666L13.8239 28.363L13.8465 28.3183L13.8478 28.3105L13.8461 28.3039L13.7622 28.1583C13.7593 28.1551 13.7562 28.1541 13.753 28.1552ZM13.8246 28.0674L13.8204 28.0705L13.773 28.1367L13.7713 28.142L13.7723 28.1464L13.8571 28.2927L13.861 28.296L13.8651 28.297L13.9521 28.2926C13.9571 28.2915 13.96 28.2888 13.9607 28.2846L13.9595 28.279L13.8355 28.0714C13.8322 28.0679 13.8285 28.0665 13.8246 28.0674ZM13.5761 28.1987C13.574 28.1986 13.5721 28.1993 13.5705 28.2006C13.569 28.2019 13.568 28.2037 13.5678 28.2058L13.5682 28.2117L13.6685 28.4316C13.671 28.4357 13.6744 28.4374 13.6788 28.4369L13.6837 28.4335L13.7367 28.3644L13.7387 28.3598L13.7381 28.3552L13.6655 28.2024L13.6622 28.1988L13.6569 28.1971L13.5761 28.1987Z" fill="#8CF200"/>
<path fill-rule="evenodd" clip-rule="evenodd" d="M9.37501 26.2101L8.58289 24.0999C8.52591 23.9481 8.50085 23.7862 8.50928 23.6243C8.51771 23.4623 8.55945 23.3039 8.63188 23.1588C8.70431 23.0137 8.80589 22.8851 8.93026 22.7811C9.05463 22.6771 9.19912 22.5998 9.3547 22.5541C9.68441 22.4574 10.0825 22.403 10.3874 22.243C10.6923 22.0831 10.9632 21.7864 11.2301 21.57C11.3561 21.468 11.5018 21.3931 11.658 21.3499C11.8143 21.3067 11.9778 21.2962 12.1382 21.3191C12.2987 21.3419 12.4528 21.3976 12.5908 21.4827C12.7288 21.5677 12.8478 21.6803 12.9403 21.8134L14.2274 23.6639C14.6747 23.5552 15.434 23.4009 15.7016 23.9109C15.9931 24.4664 15.3189 25.0536 14.9477 25.3674C14.4195 25.8141 13.6516 26.3183 12.7689 26.7815C11.8862 27.2447 11.0349 27.5902 10.3672 27.771C9.89776 27.8983 9.03176 28.1192 8.74026 27.5637C8.47269 27.0538 9.03113 26.5166 9.37501 26.2101ZM10.1614 27.0125C9.91843 27.0782 9.72204 27.1143 9.57493 27.1258C9.66798 27.0112 9.80903 26.8697 10.0014 26.7076C10.4742 26.3076 11.1907 25.834 12.0383 25.3892C12.8858 24.9445 13.6827 24.624 14.2805 24.4621C14.5234 24.3964 14.7198 24.3603 14.8669 24.3488C14.7742 24.4632 14.6327 24.6045 14.4405 24.767C13.9676 25.167 13.2511 25.6406 12.4036 26.0854C11.556 26.5301 10.7592 26.8506 10.1614 27.0125Z" fill="#8CF200"/>
<path fill-rule="evenodd" clip-rule="evenodd" d="M9.23069 31.833L11.6453 30.5692L11.9076 31.0703C11.9185 31.078 11.9683 31.1181 12.0991 31.1685C12.2766 31.2375 12.5305 31.2976 12.8307 31.3254C13.4392 31.3807 14.1231 31.2967 14.633 31.0299C15.1428 30.763 15.6027 30.2483 15.9029 29.7174C16.0511 29.4549 16.1465 29.212 16.192 29.0262C16.2241 28.8906 16.2196 28.8269 16.2194 28.8134L15.9571 28.3123L18.3717 27.0485L22.4665 28.8058L23.5324 34.0878L21.0724 34.1499L25.8308 36.1981L15.9571 43.8001L13.5267 38.0993L12.0738 40.0853L8.34043 36.1981L9.23069 31.833Z" fill="#8CF200"/>
<path d="M50.0013 15.5025C50.8099 15.5025 50.8504 16.1089 51.2547 16.5941C51.659 17.0793 51.8611 17.3623 52.0229 18.1709C52.1037 18.8987 51.659 19.586 51.3355 20.5563C51.0525 21.5267 50.8504 21.8905 50.6886 22.78C50.4865 23.7503 49.597 24.7207 49.0714 25.7719C48.5458 26.8231 47.535 26.8231 47.3329 27.3891C47.0499 27.9551 45.4326 28.9659 45.0688 29.5724C44.7049 30.2193 43.0068 31.3513 43.0068 31.3513C43.0068 31.3513 40.7831 33.0494 40.0149 33.4133C39.2063 33.858 38.519 34.3432 37.4678 34.5858C36.457 34.8284 34.2737 34.0198 34.2737 33.4133C34.2737 32.8473 35.4058 32.6451 35.5271 32.443C35.6888 32.3217 36.6187 31.3513 37.3869 30.8662C37.9934 30.3406 38.3168 30.4214 38.6807 30.2193C39.0446 29.9767 39.4489 29.6937 39.6915 29.4107C40.0149 29.1276 41.6321 28.1977 42.0365 27.753C42.3599 27.3487 43.4111 26.9848 44.0984 26.1358C44.7049 25.408 45.6348 24.1951 45.3922 24.0334C45.0688 23.7908 44.9879 24.0334 44.6645 24.2759C44.2197 24.5185 43.4515 24.8015 43.1685 24.9633C42.5216 25.1654 39.4489 25.5697 39.4489 25.691C39.4489 25.7719 38.1147 26.3783 37.5082 26.5401C36.8209 26.6209 35.9314 26.6209 35.7697 26.7422C35.608 26.9444 33.0608 26.3783 32.7778 25.408C32.3735 24.4781 32.98 24.4781 33.3438 24.0334C33.6269 23.6695 35.0419 23.3865 35.0419 23.3865H37.1443C37.3869 23.3056 37.4678 23.3056 37.9934 23.063C38.519 22.7396 38.802 22.7396 39.1254 22.7396C39.4893 22.7396 43.492 22.0523 44.2601 21.6479C45.0688 21.3245 46.2413 20.718 46.9286 20.1924C47.5755 19.7073 47.1307 19.0199 47.1307 19.0199C47.1307 19.0199 47.1712 18.0496 47.1307 17.8474C47.0903 17.6453 44.7453 17.4836 43.9771 17.4836C43.2898 17.4027 39.4489 18.2922 39.2467 18.2922C39.1254 18.2922 37.1848 18.4943 34.8802 18.373C32.6565 18.2922 32.6565 16.5132 32.8182 16.0281C33.0608 15.5025 33.9503 15.0577 34.112 15.0982C34.2333 15.179 36.3357 15.0577 36.8209 15.0982C37.1848 15.2194 37.1443 15.3003 37.1443 15.3003C37.1443 15.3003 37.8721 15.3003 38.3168 15.4216C38.6807 15.5429 40.0149 15.4216 40.0149 15.4216C40.0149 15.4216 42.7238 15.3407 43.2898 14.9769C43.8963 14.5726 44.0176 14.7747 44.0176 14.7747H46.5647C46.5647 14.7747 47.4542 14.7343 48.2628 15.179C48.9905 15.5025 50.0013 15.5025 50.0013 15.5025ZM48.2628 35.0305L49.5161 34.9092H50.4056L51.4164 34.6667L51.8207 34.3028L52.3867 34.1815H53.6805C53.6805 34.1815 54.57 34.5454 54.8126 34.1815C55.0956 33.8176 56.2681 33.8985 56.5915 33.8176C57.1171 33.575 57.8853 33.8176 58.2088 33.8176C58.6131 33.8176 59.1387 33.8176 59.3813 34.1815C59.6643 34.5454 59.9877 34.9092 59.9877 35.0305C60.109 35.3135 60.5133 35.637 60.8772 36.8095C60.9985 37.1734 60.8772 37.9415 60.8772 37.9415V42.0655C60.8772 42.5911 60.7155 43.1167 60.392 43.4806C59.9877 43.8444 60.392 44.4509 60.392 44.4509C60.392 44.4509 60.7559 45.5021 60.4729 45.8255L60.1494 47.0385L59.1387 47.7662H58.0066L56.9958 47.2406V41.9442C56.9958 41.9442 56.5915 39.8014 56.8745 39.4779C57.1171 38.9523 56.8745 37.699 56.8745 37.699L56.3894 36.8095H54.4083L53.8018 37.0925C53.8018 37.0925 53.3571 37.4159 52.9528 37.4968C52.0633 37.6585 51.9016 37.2947 51.4164 37.699C51.0121 37.9415 50.6886 37.699 50.2843 37.699C49.8396 37.5777 49.5161 37.699 49.5161 37.699L48.2628 37.9415C48.2628 37.9415 47.4542 38.3054 47.252 38.4267C47.0094 38.7097 45.5944 38.4671 45.5944 38.4671C45.5944 38.4671 44.8666 38.7097 44.5836 38.7097H44.058C44.058 38.7097 43.0877 38.7097 42.3195 39.2353C41.43 39.5588 41.3087 39.4375 40.8235 39.8418H39.2872C38.6403 39.9631 37.8317 39.8418 37.8317 39.8418C37.8317 39.8418 36.74 39.5588 36.4974 39.3971C36.174 39.1949 35.6484 38.4671 35.6484 38.4671V37.7798L36.0527 36.9308C36.3761 36.203 36.9422 35.9604 36.9422 35.9604L37.9125 35.8391C37.9125 35.8391 38.5594 36.0413 39.2872 35.8391C40.0958 35.6774 40.8235 35.9604 41.0661 35.8391H42.0769C42.0769 35.8391 42.9259 35.8391 43.3302 35.2731H44.058C44.5836 35.071 44.9879 35.2731 44.9879 35.2731L46.2008 34.7879L47.6563 35.0305H48.2628ZM56.8745 12.7532H58.4918C58.6535 12.6319 59.26 13.117 59.26 13.117L59.9877 13.4809L60.5133 14.4108C60.5133 14.4108 60.8368 15.0173 60.8368 15.2194C60.9581 15.6238 60.8368 16.0281 60.8368 16.3515V18.4539C60.7559 19.4243 60.8368 19.4243 60.8368 19.4243V20.6372L60.5133 21.4458C60.2303 22.214 60.5133 21.8501 60.5133 22.3353C60.5133 22.9822 59.9877 23.4673 59.9877 23.4673C59.9877 23.4673 60.1494 24.6398 60.1494 24.8824V25.974L60.0686 28.7638C60.1494 29.6532 60.0282 30.3406 59.7856 30.7044C59.4621 31.1087 59.0174 31.3918 58.3705 31.4726H56.8745L56.3489 31.0279L56.2277 30.7449L56.4298 30.1788C56.632 29.7341 56.3489 29.4107 56.4298 28.9659V24.4781L56.8745 22.8609C56.8745 22.8609 56.7533 21.6479 56.8745 21.4458C56.9958 21.0819 56.8745 20.6372 56.8745 18.9795V16.9175L56.4298 16.3515L56.2277 15.2194C56.2277 15.2194 56.3489 14.8556 56.2277 14.4108C56.1064 13.9661 56.2277 13.3192 56.2277 13.3192L56.8745 12.7532Z" fill="#8CF200"/>
<mask id="path-7-outside-1_45_95" maskUnits="userSpaceOnUse" x="20.3384" y="39.8154" width="35" height="18" fill="black">
<rect fill="white" x="20.3384" y="39.8154" width="35" height="18"/>
<path d="M28.3339 53.5432V48.678H24.9243V53.5432H22.148V42.8829C22.148 41.98 22.8084 41.5083 23.5362 41.5083C24.2639 41.5083 24.9243 41.98 24.9243 42.8829V46.333H28.3339V42.8829C28.3339 41.98 28.9943 41.5083 29.7221 41.5083C30.4498 41.5083 31.1102 41.98 31.1102 42.8829V53.5432H28.3339ZM32.5844 42.7482C32.5844 41.8587 33.2313 41.5083 33.986 41.5083C34.7407 41.5083 35.3876 41.8587 35.3876 42.7482C35.3876 43.6376 34.7407 43.988 33.986 43.988C33.2313 43.988 32.5844 43.6376 32.5844 42.7482ZM32.5979 53.5432V45.9152C32.5979 44.9853 33.2313 44.5676 33.986 44.5676C34.7407 44.5676 35.3742 44.9853 35.3742 45.9152V53.5432H32.5979ZM44.4496 45.8209V53.0445C44.4496 54.527 43.8297 56.3599 40.2044 56.5081C39.7057 56.5351 38.695 56.4003 38.2502 56.1442C37.8459 55.9016 37.6438 55.3221 37.819 54.8504C37.9807 54.4192 38.4254 54.1362 38.8836 54.2036C39.2745 54.2575 39.7057 54.3248 40.2044 54.3248C41.3499 54.3248 41.8486 53.7184 41.8486 53.1119V52.802C41.3769 53.2736 40.73 53.5432 39.9079 53.5432C38.1289 53.5432 36.6599 52.6941 36.6599 49.8775V48.1928C36.6599 45.3492 38.1424 44.4732 39.9214 44.4732C40.5952 44.4732 41.3364 44.7293 41.8486 45.2279C42.0642 44.7293 42.5628 44.4732 43.1019 44.4732C43.8162 44.4732 44.4496 44.9314 44.4496 45.8209ZM39.4362 48.0042V50.12C39.4362 51.0365 40.11 51.3464 40.5817 51.3464C41.0399 51.3464 41.7407 51.05 41.7407 50.1874V47.9368C41.7407 47.0743 41.0399 46.7778 40.5817 46.7778C40.11 46.7778 39.4362 47.0877 39.4362 48.0042ZM53.6 53.5432H50.8238V48.0176C50.8238 47.1012 50.2038 46.7912 49.7187 46.7912C49.247 46.7912 48.6001 47.0877 48.6001 47.9503V53.5432H45.8643V42.856C45.8643 41.9665 46.5246 41.5083 47.2389 41.5083C47.9532 41.5083 48.6001 41.9665 48.6001 42.856V45.1201C49.0718 44.7158 49.6782 44.4732 50.3925 44.4732C52.158 44.4732 53.6 45.3492 53.6 48.1928V53.5432Z"/>
</mask>
<path d="M28.3339 53.5432V48.678H24.9243V53.5432H22.148V42.8829C22.148 41.98 22.8084 41.5083 23.5362 41.5083C24.2639 41.5083 24.9243 41.98 24.9243 42.8829V46.333H28.3339V42.8829C28.3339 41.98 28.9943 41.5083 29.7221 41.5083C30.4498 41.5083 31.1102 41.98 31.1102 42.8829V53.5432H28.3339ZM32.5844 42.7482C32.5844 41.8587 33.2313 41.5083 33.986 41.5083C34.7407 41.5083 35.3876 41.8587 35.3876 42.7482C35.3876 43.6376 34.7407 43.988 33.986 43.988C33.2313 43.988 32.5844 43.6376 32.5844 42.7482ZM32.5979 53.5432V45.9152C32.5979 44.9853 33.2313 44.5676 33.986 44.5676C34.7407 44.5676 35.3742 44.9853 35.3742 45.9152V53.5432H32.5979ZM44.4496 45.8209V53.0445C44.4496 54.527 43.8297 56.3599 40.2044 56.5081C39.7057 56.5351 38.695 56.4003 38.2502 56.1442C37.8459 55.9016 37.6438 55.3221 37.819 54.8504C37.9807 54.4192 38.4254 54.1362 38.8836 54.2036C39.2745 54.2575 39.7057 54.3248 40.2044 54.3248C41.3499 54.3248 41.8486 53.7184 41.8486 53.1119V52.802C41.3769 53.2736 40.73 53.5432 39.9079 53.5432C38.1289 53.5432 36.6599 52.6941 36.6599 49.8775V48.1928C36.6599 45.3492 38.1424 44.4732 39.9214 44.4732C40.5952 44.4732 41.3364 44.7293 41.8486 45.2279C42.0642 44.7293 42.5628 44.4732 43.1019 44.4732C43.8162 44.4732 44.4496 44.9314 44.4496 45.8209ZM39.4362 48.0042V50.12C39.4362 51.0365 40.11 51.3464 40.5817 51.3464C41.0399 51.3464 41.7407 51.05 41.7407 50.1874V47.9368C41.7407 47.0743 41.0399 46.7778 40.5817 46.7778C40.11 46.7778 39.4362 47.0877 39.4362 48.0042ZM53.6 53.5432H50.8238V48.0176C50.8238 47.1012 50.2038 46.7912 49.7187 46.7912C49.247 46.7912 48.6001 47.0877 48.6001 47.9503V53.5432H45.8643V42.856C45.8643 41.9665 46.5246 41.5083 47.2389 41.5083C47.9532 41.5083 48.6001 41.9665 48.6001 42.856V45.1201C49.0718 44.7158 49.6782 44.4732 50.3925 44.4732C52.158 44.4732 53.6 45.3492 53.6 48.1928V53.5432Z" fill="black"/>
<path d="M28.3339 53.5432H27.2109V54.6663H28.3339V53.5432ZM28.3339 48.678H29.457V47.5549H28.3339V48.678ZM24.9243 48.678V47.5549H23.8012V48.678H24.9243ZM24.9243 53.5432V54.6663H26.0474V53.5432H24.9243ZM22.148 53.5432H21.025V54.6663H22.148V53.5432ZM24.9243 46.333H23.8012V47.4561H24.9243V46.333ZM28.3339 46.333V47.4561H29.457V46.333H28.3339ZM31.1102 53.5432V54.6663H32.2333V53.5432H31.1102ZM29.457 53.5432V48.678H27.2109V53.5432H29.457ZM28.3339 47.5549H24.9243V49.8011H28.3339V47.5549ZM23.8012 48.678V53.5432H26.0474V48.678H23.8012ZM24.9243 52.4201H22.148V54.6663H24.9243V52.4201ZM23.2711 53.5432V42.8829H21.025V53.5432H23.2711ZM23.2711 42.8829C23.2711 42.7958 23.2866 42.7489 23.295 42.7292C23.3033 42.7099 23.3119 42.6995 23.3211 42.6912C23.3414 42.6729 23.4077 42.6314 23.5362 42.6314V40.3852C22.9369 40.3852 22.309 40.5795 21.8173 41.0228C21.3079 41.4818 21.025 42.137 21.025 42.8829H23.2711ZM23.5362 42.6314C23.6646 42.6314 23.7309 42.6729 23.7512 42.6912C23.7604 42.6995 23.769 42.7099 23.7773 42.7292C23.7857 42.7489 23.8012 42.7958 23.8012 42.8829H26.0474C26.0474 42.137 25.7644 41.4818 25.255 41.0228C24.7633 40.5795 24.1354 40.3852 23.5362 40.3852V42.6314ZM23.8012 42.8829V46.333H26.0474V42.8829H23.8012ZM24.9243 47.4561H28.3339V45.21H24.9243V47.4561ZM29.457 46.333V42.8829H27.2109V46.333H29.457ZM29.457 42.8829C29.457 42.7958 29.4725 42.7489 29.481 42.7292C29.4892 42.7099 29.4978 42.6995 29.507 42.6912C29.5273 42.6729 29.5936 42.6314 29.7221 42.6314V40.3852C29.1228 40.3852 28.495 40.5795 28.0032 41.0228C27.4939 41.4818 27.2109 42.137 27.2109 42.8829H29.457ZM29.7221 42.6314C29.8505 42.6314 29.9168 42.6729 29.9371 42.6912C29.9463 42.6995 29.9549 42.7099 29.9632 42.7292C29.9716 42.7489 29.9871 42.7958 29.9871 42.8829H32.2333C32.2333 42.137 31.9503 41.4818 31.4409 41.0228C30.9492 40.5795 30.3213 40.3852 29.7221 40.3852V42.6314ZM29.9871 42.8829V53.5432H32.2333V42.8829H29.9871ZM31.1102 52.4201H28.3339V54.6663H31.1102V52.4201ZM32.5979 53.5432H31.4748V54.6663H32.5979V53.5432ZM35.3742 53.5432V54.6663H36.4972V53.5432H35.3742ZM33.7075 42.7482C33.7075 42.663 33.7225 42.6378 33.7181 42.6474C33.7124 42.6599 33.7003 42.6745 33.6909 42.6818C33.6856 42.6859 33.7002 42.6728 33.7518 42.6583C33.8039 42.6437 33.8818 42.6314 33.986 42.6314V40.3852C33.4565 40.3852 32.8317 40.5053 32.3135 40.9075C31.751 41.3443 31.4614 41.9998 31.4614 42.7482H33.7075ZM33.986 42.6314C34.0902 42.6314 34.1681 42.6437 34.2203 42.6583C34.2718 42.6728 34.2865 42.6859 34.2812 42.6818C34.2718 42.6745 34.2597 42.6599 34.2539 42.6474C34.2495 42.6378 34.2646 42.663 34.2646 42.7482H36.5107C36.5107 41.9998 36.2211 41.3443 35.6585 40.9075C35.1404 40.5053 34.5155 40.3852 33.986 40.3852V42.6314ZM34.2646 42.7482C34.2646 42.8333 34.2495 42.8586 34.2539 42.8489C34.2597 42.8364 34.2718 42.8218 34.2812 42.8145C34.2865 42.8104 34.2718 42.8236 34.2203 42.838C34.1681 42.8526 34.0902 42.865 33.986 42.865V45.1111C34.5155 45.1111 35.1404 44.991 35.6585 44.5888C36.2211 44.1521 36.5107 43.4966 36.5107 42.7482H34.2646ZM33.986 42.865C33.8818 42.865 33.8039 42.8526 33.7518 42.838C33.7002 42.8236 33.6856 42.8104 33.6909 42.8145C33.7003 42.8218 33.7124 42.8364 33.7181 42.8489C33.7225 42.8586 33.7075 42.8333 33.7075 42.7482H31.4614C31.4614 43.4966 31.751 44.1521 32.3135 44.5888C32.8317 44.991 33.4565 45.1111 33.986 45.1111V42.865ZM33.721 53.5432V45.9152H31.4748V53.5432H33.721ZM33.721 45.9152C33.721 45.8108 33.7385 45.7606 33.7446 45.7462C33.7478 45.7385 33.7497 45.7362 33.7491 45.7369C33.749 45.7371 33.7487 45.7375 33.7483 45.738C33.7478 45.7385 33.7476 45.7387 33.7477 45.7386C33.7478 45.7385 33.7506 45.7361 33.7579 45.732C33.7653 45.7279 33.7781 45.7219 33.7973 45.7156C33.8368 45.7028 33.8993 45.6906 33.986 45.6906V43.4445C33.4137 43.4445 32.7787 43.6027 32.2702 44.0468C31.7376 44.5119 31.4748 45.1767 31.4748 45.9152H33.721ZM33.986 45.6906C34.0728 45.6906 34.1352 45.7028 34.1747 45.7156C34.194 45.7219 34.2067 45.7279 34.2142 45.732C34.2215 45.7361 34.2243 45.7385 34.2244 45.7386C34.2245 45.7387 34.2242 45.7385 34.2238 45.738C34.2234 45.7375 34.2231 45.7371 34.2229 45.7369C34.2224 45.7362 34.2243 45.7385 34.2275 45.7462C34.2335 45.7606 34.2511 45.8108 34.2511 45.9152H36.4972C36.4972 45.1767 36.2345 44.5119 35.7019 44.0468C35.1934 43.6027 34.5584 43.4445 33.986 43.4445V45.6906ZM34.2511 45.9152V53.5432H36.4972V45.9152H34.2511ZM35.3742 52.4201H32.5979V54.6663H35.3742V52.4201ZM40.2044 56.5081L40.1585 55.386L40.1511 55.3863L40.1438 55.3867L40.2044 56.5081ZM38.2502 56.1442L37.6724 57.1073L37.6811 57.1125L37.6898 57.1175L38.2502 56.1442ZM37.819 54.8504L36.7674 54.4561L36.7662 54.4594L37.819 54.8504ZM38.8836 54.2036L38.7202 55.3147L38.7302 55.3161L38.8836 54.2036ZM41.8486 52.802H42.9716V50.0906L41.0544 52.0078L41.8486 52.802ZM41.8486 45.2279L41.0651 46.0326L42.2326 47.1694L42.8794 45.6737L41.8486 45.2279ZM43.3265 45.8209V53.0445H45.5727V45.8209H43.3265ZM43.3265 53.0445C43.3265 53.6462 43.1991 54.147 42.8594 54.5169C42.5244 54.8816 41.798 55.3189 40.1585 55.386L40.2503 57.6302C42.2361 57.549 43.6322 56.9959 44.5136 56.0364C45.3901 55.0822 45.5727 53.9254 45.5727 53.0445H43.3265ZM40.1438 55.3867C40.0022 55.3943 39.7119 55.3783 39.3933 55.3248C39.2408 55.2991 39.1015 55.268 38.9879 55.2349C38.9317 55.2185 38.8873 55.2031 38.8543 55.1901C38.82 55.1765 38.8074 55.1691 38.8106 55.1709L37.6898 57.1175C38.0941 57.3503 38.6241 57.4731 39.0208 57.5398C39.4435 57.6109 39.9078 57.6489 40.265 57.6295L40.1438 55.3867ZM38.828 55.1812C38.8606 55.2007 38.8761 55.2191 38.8806 55.225C38.8851 55.2308 38.8835 55.2304 38.8812 55.2235C38.8802 55.2206 38.8795 55.2177 38.879 55.2152C38.8786 55.2127 38.8786 55.2114 38.8786 55.2118C38.8786 55.2121 38.8787 55.2229 38.8718 55.2415L36.7662 54.4594C36.4104 55.4172 36.7857 56.5753 37.6724 57.1073L38.828 55.1812ZM38.8705 55.2448C38.8612 55.2697 38.8462 55.2857 38.8292 55.2962C38.8103 55.3078 38.7718 55.3223 38.7202 55.3147L39.047 53.0924C38.0296 52.9428 37.1017 53.5646 36.7674 54.4561L38.8705 55.2448ZM38.7302 55.3161C39.098 55.3668 39.6127 55.4479 40.2044 55.4479V53.2018C39.7988 53.2018 39.4509 53.1481 39.0371 53.091L38.7302 55.3161ZM40.2044 55.4479C40.9708 55.4479 41.6628 55.2435 42.1829 54.8019C42.7103 54.3541 42.9716 53.7339 42.9716 53.1119H40.7255C40.7255 53.0964 40.7375 53.0826 40.7291 53.0897C40.7135 53.1029 40.5835 53.2018 40.2044 53.2018V55.4479ZM42.9716 53.1119V52.802H40.7255V53.1119H42.9716ZM41.0544 52.0078C40.816 52.2462 40.4658 52.4201 39.9079 52.4201V54.6663C40.9941 54.6663 41.9377 54.3011 42.6427 53.5961L41.0544 52.0078ZM39.9079 52.4201C39.1789 52.4201 38.6964 52.2453 38.3934 51.9552C38.0994 51.6739 37.783 51.1004 37.783 49.8775H35.5369C35.5369 51.4712 35.9549 52.7305 36.8402 53.5779C37.7164 54.4165 38.8579 54.6663 39.9079 54.6663V52.4201ZM37.783 49.8775V48.1928H35.5369V49.8775H37.783ZM37.783 48.1928C37.783 46.9566 38.1029 46.366 38.405 46.0733C38.714 45.7739 39.2002 45.5963 39.9214 45.5963V43.3501C38.8636 43.3501 37.7191 43.6105 36.8421 44.46C35.9582 45.3163 35.5369 46.5855 35.5369 48.1928H37.783ZM39.9214 45.5963C40.3424 45.5963 40.7896 45.7643 41.0651 46.0326L42.632 44.4233C41.8833 43.6942 40.848 43.3501 39.9214 43.3501V45.5963ZM42.8794 45.6737C42.8855 45.6595 42.8921 45.6497 42.9152 45.6364C42.9448 45.6193 43.0066 45.5963 43.1019 45.5963V43.3501C42.2234 43.3501 41.2506 43.7812 40.8177 44.7822L42.8794 45.6737ZM43.1019 45.5963C43.2254 45.5963 43.2781 45.6353 43.287 45.6435C43.291 45.6472 43.297 45.6532 43.3039 45.6698C43.3113 45.6873 43.3265 45.7332 43.3265 45.8209H45.5727C45.5727 45.0909 45.303 44.4419 44.8002 43.9835C44.3139 43.5402 43.6927 43.3501 43.1019 43.3501V45.5963ZM38.3131 48.0042V50.12H40.5593V48.0042H38.3131ZM38.3131 50.12C38.3131 50.8844 38.6091 51.5141 39.1075 51.935C39.5697 52.3253 40.126 52.4695 40.5817 52.4695V50.2234C40.5828 50.2234 40.5728 50.2229 40.5604 50.2188C40.5495 50.2151 40.5497 50.213 40.5567 50.2188C40.5604 50.222 40.5647 50.2264 40.5687 50.2316C40.5728 50.237 40.5744 50.2405 40.5743 50.2403C40.5741 50.2399 40.5707 50.2323 40.5671 50.2144C40.5634 50.1963 40.5593 50.1657 40.5593 50.12H38.3131ZM40.5817 52.4695C41.0209 52.4695 41.5652 52.3348 42.0252 51.9748C42.5281 51.5812 42.8638 50.9661 42.8638 50.1874H40.6177C40.6177 50.2189 40.6145 50.2362 40.6132 50.2423C40.6119 50.248 40.6117 50.2461 40.615 50.2393C40.6184 50.2325 40.6231 50.225 40.6288 50.2181C40.6343 50.2115 40.6389 50.2075 40.6409 50.206C40.6437 50.2037 40.6366 50.2098 40.6166 50.2161C40.6075 50.219 40.5984 50.221 40.5906 50.2223C40.5826 50.2235 40.5792 50.2234 40.5817 50.2234V52.4695ZM42.8638 50.1874V47.9368H40.6177V50.1874H42.8638ZM42.8638 47.9368C42.8638 47.1582 42.5281 46.543 42.0252 46.1494C41.5652 45.7894 41.0209 45.6547 40.5817 45.6547V47.9008C40.5792 47.9008 40.5826 47.9007 40.5906 47.902C40.5984 47.9032 40.6075 47.9052 40.6166 47.9081C40.6366 47.9144 40.6437 47.9205 40.6409 47.9183C40.6389 47.9167 40.6343 47.9127 40.6288 47.9061C40.6231 47.8992 40.6184 47.8917 40.615 47.8849C40.6117 47.8781 40.6119 47.8762 40.6132 47.882C40.6145 47.888 40.6177 47.9053 40.6177 47.9368H42.8638ZM40.5817 45.6547C40.126 45.6547 39.5697 45.7989 39.1075 46.1892C38.6091 46.6101 38.3131 47.2398 38.3131 48.0042H40.5593C40.5593 47.9586 40.5634 47.928 40.5671 47.9098C40.5707 47.8919 40.5741 47.8843 40.5743 47.884C40.5744 47.8837 40.5728 47.8872 40.5687 47.8926C40.5647 47.8978 40.5604 47.9022 40.5567 47.9054C40.5497 47.9112 40.5495 47.9091 40.5604 47.9054C40.5728 47.9013 40.5828 47.9008 40.5817 47.9008V45.6547ZM53.6 53.5432V54.6663H54.7231V53.5432H53.6ZM50.8238 53.5432H49.7007V54.6663H50.8238V53.5432ZM48.6001 53.5432V54.6663H49.7232V53.5432H48.6001ZM45.8643 53.5432H44.7412V54.6663H45.8643V53.5432ZM48.6001 45.1201H47.477V47.5619L49.331 45.9728L48.6001 45.1201ZM53.6 52.4201H50.8238V54.6663H53.6V52.4201ZM51.9468 53.5432V48.0176H49.7007V53.5432H51.9468ZM51.9468 48.0176C51.9468 47.2853 51.6875 46.6562 51.2001 46.2221C50.7409 45.8132 50.1814 45.6682 49.7187 45.6682V47.9143C49.7232 47.9143 49.7291 47.9155 49.7313 47.9162C49.7319 47.9164 49.7212 47.9128 49.7062 47.8995C49.6988 47.8929 49.6924 47.8857 49.6876 47.8789C49.6827 47.872 49.6814 47.8685 49.6824 47.8708C49.6838 47.8741 49.7007 47.9159 49.7007 48.0176H51.9468ZM49.7187 45.6682C49.2726 45.6682 48.7257 45.8035 48.2681 46.1808C47.7727 46.5892 47.477 47.2049 47.477 47.9503H49.7232C49.7232 47.9128 49.7266 47.8898 49.7289 47.8787C49.7312 47.8678 49.7326 47.8663 49.7303 47.8714C49.7279 47.8766 49.7235 47.8845 49.7167 47.8933C49.7099 47.902 49.7029 47.9089 49.6969 47.9139C49.6855 47.9233 49.6819 47.9224 49.6921 47.9191C49.6966 47.9176 49.7022 47.9163 49.7081 47.9154C49.7141 47.9144 49.718 47.9143 49.7187 47.9143V45.6682ZM47.477 47.9503V53.5432H49.7232V47.9503H47.477ZM48.6001 52.4201H45.8643V54.6663H48.6001V52.4201ZM46.9873 53.5432V42.856H44.7412V53.5432H46.9873ZM46.9873 42.856C46.9873 42.7745 47.002 42.7331 47.0085 42.718C47.0149 42.7033 47.0213 42.6955 47.0292 42.6886C47.0479 42.672 47.1133 42.6314 47.2389 42.6314V40.3852C46.6502 40.3852 46.0283 40.5737 45.5383 41.0086C45.0288 41.4607 44.7412 42.1106 44.7412 42.856H46.9873ZM47.2389 42.6314C47.3634 42.6314 47.4225 42.6712 47.4364 42.6836C47.4423 42.6889 47.4484 42.6958 47.4551 42.7115C47.462 42.7277 47.477 42.7714 47.477 42.856H49.7232C49.7232 42.1183 49.4446 41.4688 48.9383 41.0135C48.4502 40.5745 47.8286 40.3852 47.2389 40.3852V42.6314ZM47.477 42.856V45.1201H49.7232V42.856H47.477ZM49.331 45.9728C49.6 45.7422 49.9475 45.5963 50.3925 45.5963V43.3501C49.4089 43.3501 48.5435 43.6894 47.8692 44.2674L49.331 45.9728ZM50.3925 45.5963C51.1044 45.5963 51.5725 45.7725 51.8688 46.0654C52.1627 46.3559 52.4769 46.9483 52.4769 48.1928H54.7231C54.7231 46.5938 54.3163 45.3264 53.4478 44.4679C52.5818 43.6119 51.4461 43.3501 50.3925 43.3501V45.5963ZM52.4769 48.1928V53.5432H54.7231V48.1928H52.4769Z" fill="#8CF200" mask="url(#path-7-outside-1_45_95)"/>
</svg>
