<svg width="38" height="38" viewBox="0 0 38 38" fill="none" xmlns="http://www.w3.org/2000/svg">
<rect width="38" height="38" rx="7.01538" fill="black"/>
<path d="M6.44879 12.8617C6.39391 12.863 6.33952 12.8724 6.28736 12.8895C6.08184 12.9574 5.91595 13.147 5.82698 13.4632C5.73801 13.7794 5.74459 14.2038 5.88793 14.6341C6.03127 15.0643 6.28086 15.4086 6.54196 15.6091C6.8031 15.8097 7.04985 15.8629 7.25541 15.795C7.46098 15.7271 7.62675 15.5376 7.71569 15.2214C7.80466 14.9052 7.79812 14.4807 7.65474 14.0505C7.5114 13.6202 7.26185 13.276 7.0007 13.0755C6.80486 12.9251 6.61712 12.8575 6.44879 12.8617ZM13.1694 13.3138C13.043 13.3196 12.9317 13.3777 12.868 13.5091L12.3698 14.4132L11.393 15.5937C11.393 15.5937 9.42605 15.2456 8.7608 15.343C8.62272 15.363 8.48486 15.3845 8.34726 15.4075C8.21521 15.87 7.91577 16.2696 7.46332 16.419C7.04265 16.558 6.59831 16.4447 6.22974 16.1933C6.06295 16.3216 5.90868 16.4703 5.77093 16.6438C5.08861 17.1794 4.80686 17.548 4.23266 17.9197C4.34531 17.3766 4.623 16.8354 4.92784 16.3895C4.9779 16.3163 5.34785 16.0039 5.39875 15.9362C5.67206 15.3989 5.08949 14.4303 4.54097 15.3567C4.4889 15.429 4.27256 16.0465 4.21881 16.1275C3.6863 17.1823 3.35373 17.8747 3.65342 18.9163C3.75412 19.2663 4.78282 18.7371 5.67144 18.1067C6.63857 19.471 7.8405 19.8826 8.53506 20.4115C7.68496 23.4582 8.9102 25.7922 9.60476 28.0013L8.5397 29.3198C8.21568 29.7081 10.3195 29.7989 10.4548 29.3472L10.7365 28.1107C9.68303 24.8037 10.6217 22.3491 11.3803 20.5209C13.3975 18.3635 15.5906 17.5136 17.5516 15.8151L19.2069 15.463C19.6033 14.7353 19.5809 14.3761 18.7007 14.3414L17.0592 14.9843C14.9917 16.1465 11.7243 16.9335 10.245 18.5647C10.2122 18.0515 9.60919 16.8364 9.48123 16.4295C10.1891 16.5235 11.1499 16.5838 11.697 16.3315C12.2818 16.0618 12.9258 14.8409 12.9258 14.8409L13.6442 14.3092C14.2678 13.9417 13.6212 13.2935 13.1695 13.3139L13.1694 13.3138Z" fill="#8CF200"/>
<path fill-rule="evenodd" clip-rule="evenodd" d="M7.15907 14.6562L7.15726 14.6576L7.14773 14.6707L7.14448 14.6734L7.14157 14.674L7.12538 14.6744C7.12313 14.6748 7.12183 14.6758 7.1215 14.6776L7.12173 14.6797L7.15934 14.7589L7.16215 14.7621L7.1652 14.7635L7.19107 14.767L7.19417 14.7663L7.19597 14.7644L7.20777 14.7411L7.20843 14.7371L7.20754 14.7336L7.16386 14.6579C7.16236 14.6562 7.16076 14.6556 7.15907 14.6562ZM7.19634 14.6106L7.19417 14.6122L7.16949 14.6466L7.16863 14.6494L7.16914 14.6516L7.21328 14.7278L7.21533 14.7295L7.21744 14.73L7.2627 14.7278C7.26531 14.7272 7.26681 14.7258 7.2672 14.7236L7.26659 14.7207L7.20205 14.6126C7.20031 14.6108 7.1984 14.6101 7.19634 14.6106ZM7.06698 14.6789C7.06593 14.6788 7.06489 14.6792 7.06409 14.6799C7.06328 14.6805 7.06277 14.6815 7.06266 14.6826L7.0629 14.6857L7.11512 14.8001C7.11638 14.8022 7.11817 14.8032 7.12048 14.8029L7.12301 14.8011L7.15058 14.7651L7.15164 14.7627L7.15131 14.7603L7.11351 14.6808L7.11183 14.6789L7.10907 14.6781L7.06698 14.6789Z" fill="#8CF200"/>
<path fill-rule="evenodd" clip-rule="evenodd" d="M4.88015 13.6437L4.46781 12.5452C4.43815 12.4662 4.42511 12.3819 4.4295 12.2976C4.43388 12.2133 4.45561 12.1308 4.49331 12.0553C4.53102 11.9798 4.58389 11.9129 4.64863 11.8587C4.71337 11.8046 4.78859 11.7643 4.86958 11.7405C5.04121 11.6902 5.24841 11.6619 5.40713 11.5786C5.56585 11.4953 5.70688 11.3409 5.84581 11.2283C5.91139 11.1752 5.98722 11.1362 6.06856 11.1137C6.1499 11.0912 6.235 11.0858 6.31855 11.0977C6.40209 11.1095 6.48229 11.1385 6.55413 11.1828C6.62597 11.2271 6.68791 11.2857 6.73608 11.355L7.40606 12.3182C7.63888 12.2617 8.03416 12.1814 8.17344 12.4468C8.32518 12.736 7.97423 13.0417 7.78102 13.205C7.50606 13.4375 7.1063 13.7 6.64681 13.9411C6.18733 14.1822 5.74421 14.3621 5.39662 14.4562C5.15226 14.5225 4.70147 14.6375 4.54973 14.3483C4.41045 14.0829 4.70114 13.8032 4.88015 13.6437ZM5.28948 14.0613C5.16303 14.0956 5.0608 14.1143 4.98422 14.1203C5.03265 14.0607 5.10608 13.987 5.2062 13.9026C5.45235 13.6944 5.82533 13.4479 6.26651 13.2164C6.7077 12.9849 7.12251 12.818 7.43369 12.7338C7.56015 12.6995 7.66238 12.6808 7.73896 12.6748C7.6907 12.7343 7.617 12.8079 7.51698 12.8925C7.27083 13.1007 6.89785 13.3472 6.45666 13.5787C6.01548 13.8102 5.60066 13.9771 5.28948 14.0613Z" fill="#8CF200"/>
<path fill-rule="evenodd" clip-rule="evenodd" d="M4.80501 16.5705L6.06194 15.9127L6.19847 16.1735C6.20416 16.1776 6.23009 16.1984 6.29813 16.2246C6.39057 16.2605 6.52275 16.2918 6.679 16.3063C6.99575 16.3351 7.35175 16.2914 7.61716 16.1525C7.88257 16.0136 8.12194 15.7457 8.27821 15.4692C8.35538 15.3326 8.40501 15.2062 8.42873 15.1094C8.44541 15.0389 8.44305 15.0057 8.44297 14.9987L8.30644 14.7379L9.56337 14.08L11.6949 14.9947L12.2497 17.7443L10.9692 17.7766L13.4462 18.8428L8.30644 22.8L7.04132 19.8325L6.28496 20.8663L4.34159 18.8428L4.80501 16.5705Z" fill="#8CF200"/>
<path d="M26.3979 7.4944C26.8189 7.4944 26.8399 7.81009 27.0504 8.06264C27.2608 8.3152 27.3661 8.46252 27.4502 8.88344C27.4923 9.26227 27.2608 9.62006 27.0925 10.1252C26.9451 10.6303 26.8399 10.8197 26.7557 11.2827C26.6505 11.7878 26.1875 12.2929 25.9139 12.8401C25.6403 13.3873 25.1141 13.3873 25.0089 13.682C24.8616 13.9766 24.0197 14.5028 23.8303 14.8185C23.6409 15.1552 22.757 15.7445 22.757 15.7445C22.757 15.7445 21.5994 16.6284 21.1995 16.8178C20.7786 17.0494 20.4208 17.3019 19.8736 17.4282C19.3475 17.5545 18.211 17.1335 18.211 16.8178C18.211 16.5232 18.8003 16.418 18.8634 16.3127C18.9476 16.2496 19.4317 15.7445 19.8315 15.4919C20.1472 15.2183 20.3156 15.2604 20.505 15.1552C20.6944 15.0289 20.9049 14.8816 21.0312 14.7343C21.1995 14.587 22.0414 14.1029 22.2518 13.8714C22.4202 13.6609 22.9674 13.4715 23.3252 13.0295C23.6409 12.6507 24.125 12.0193 23.9987 11.9351C23.8303 11.8089 23.7882 11.9351 23.6198 12.0614C23.3883 12.1877 22.9885 12.335 22.8411 12.4192C22.5044 12.5244 20.9049 12.7349 20.9049 12.798C20.9049 12.8401 20.2104 13.1558 19.8947 13.24C19.5369 13.2821 19.0739 13.2821 18.9897 13.3452C18.9055 13.4505 17.5796 13.1558 17.4323 12.6507C17.2218 12.1666 17.5375 12.1666 17.7269 11.9351C17.8742 11.7457 18.6109 11.5984 18.6109 11.5984H19.7053C19.8315 11.5563 19.8736 11.5563 20.1472 11.43C20.4208 11.2617 20.5682 11.2617 20.7365 11.2617C20.9259 11.2617 23.0095 10.9039 23.4094 10.6934C23.8303 10.525 24.4406 10.2094 24.7984 9.93575C25.1352 9.6832 24.9037 9.32541 24.9037 9.32541C24.9037 9.32541 24.9247 8.8203 24.9037 8.71507C24.8826 8.60984 23.6619 8.52566 23.2621 8.52566C22.9043 8.48357 20.9049 8.94658 20.7997 8.94658C20.7365 8.94658 19.7263 9.05181 18.5267 8.98867C17.3691 8.94658 17.3691 8.02055 17.4533 7.768C17.5796 7.4944 18.0426 7.26289 18.1268 7.28394C18.1899 7.32603 19.2843 7.26289 19.5369 7.28394C19.7263 7.34707 19.7053 7.38917 19.7053 7.38917C19.7053 7.38917 20.0841 7.38917 20.3156 7.4523C20.505 7.51544 21.1995 7.4523 21.1995 7.4523C21.1995 7.4523 22.6096 7.41021 22.9043 7.2208C23.22 7.01033 23.2831 7.11557 23.2831 7.11557H24.609C24.609 7.11557 25.072 7.09452 25.493 7.32603C25.8718 7.4944 26.3979 7.4944 26.3979 7.4944ZM25.493 17.6597L26.1454 17.5966H26.6084L27.1346 17.4703L27.345 17.2809L27.6397 17.2177H28.3131C28.3131 17.2177 28.7762 17.4071 28.9024 17.2177C29.0498 17.0283 29.6601 17.0704 29.8285 17.0283C30.1021 16.902 30.5019 17.0283 30.6703 17.0283C30.8808 17.0283 31.1544 17.0283 31.2806 17.2177C31.428 17.4071 31.5963 17.5966 31.5963 17.6597C31.6595 17.807 31.8699 17.9754 32.0594 18.5857C32.1225 18.7751 32.0594 19.175 32.0594 19.175V21.3217C32.0594 21.5953 31.9752 21.8689 31.8068 22.0583C31.5963 22.2478 31.8068 22.5634 31.8068 22.5634C31.8068 22.5634 31.9962 23.1106 31.8489 23.279L31.6805 23.9104L31.1544 24.2892H30.5651L30.0389 24.0156V21.2586C30.0389 21.2586 29.8285 20.1431 29.9758 19.9748C30.1021 19.7012 29.9758 19.0487 29.9758 19.0487L29.7232 18.5857H28.692L28.3763 18.733C28.3763 18.733 28.1448 18.9014 27.9343 18.9435C27.4713 19.0277 27.3871 18.8383 27.1346 19.0487C26.9241 19.175 26.7557 19.0487 26.5453 19.0487C26.3138 18.9856 26.1454 19.0487 26.1454 19.0487L25.493 19.175C25.493 19.175 25.072 19.3644 24.9668 19.4276C24.8405 19.5749 24.1039 19.4486 24.1039 19.4486C24.1039 19.4486 23.7251 19.5749 23.5778 19.5749H23.3042C23.3042 19.5749 22.799 19.5749 22.3992 19.8485C21.9362 20.0169 21.873 19.9537 21.6205 20.1642H20.8207C20.484 20.2273 20.063 20.1642 20.063 20.1642C20.063 20.1642 19.4948 20.0169 19.3685 19.9327C19.2002 19.8274 18.9266 19.4486 18.9266 19.4486V19.0908L19.137 18.6489C19.3054 18.27 19.6 18.1438 19.6 18.1438L20.1051 18.0806C20.1051 18.0806 20.4419 18.1858 20.8207 18.0806C21.2416 17.9964 21.6205 18.1438 21.7467 18.0806H22.2729C22.2729 18.0806 22.7149 18.0806 22.9253 17.786H23.3042C23.5778 17.6807 23.7882 17.786 23.7882 17.786L24.4196 17.5334L25.1773 17.6597H25.493ZM29.9758 6.06326H30.8176C30.9018 6.00012 31.2175 6.25267 31.2175 6.25267L31.5963 6.44209L31.8699 6.92615C31.8699 6.92615 32.0383 7.24184 32.0383 7.34707C32.1014 7.55753 32.0383 7.768 32.0383 7.93637V9.03077C31.9962 9.53587 32.0383 9.53587 32.0383 9.53587V10.1673L31.8699 10.5882C31.7226 10.9881 31.8699 10.7986 31.8699 11.0512C31.8699 11.3879 31.5963 11.6405 31.5963 11.6405C31.5963 11.6405 31.6805 12.2508 31.6805 12.3771V12.9454L31.6384 14.3975C31.6805 14.8606 31.6174 15.2183 31.4911 15.4078C31.3227 15.6182 31.0912 15.7655 30.7545 15.8076H29.9758L29.7022 15.5761L29.639 15.4288L29.7443 15.1342C29.8495 14.9026 29.7022 14.7343 29.7443 14.5028V12.1666L29.9758 11.3248C29.9758 11.3248 29.9126 10.6934 29.9758 10.5882C30.0389 10.3988 29.9758 10.1673 29.9758 9.30436V8.23101L29.7443 7.93637L29.639 7.34707C29.639 7.34707 29.7022 7.15766 29.639 6.92615C29.5759 6.69464 29.639 6.3579 29.639 6.3579L29.9758 6.06326Z" fill="#8CF200"/>
<mask id="path-7-outside-1_69_418" maskUnits="userSpaceOnUse" x="11.1077" y="21.1231" width="18" height="10" fill="black">
<rect fill="white" x="11.1077" y="21.1231" width="18" height="10"/>
<path d="M15.1601 28.5019V25.9694H13.3853V28.5019H11.9401V22.9527C11.9401 22.4827 12.2838 22.2372 12.6627 22.2372C13.0415 22.2372 13.3853 22.4827 13.3853 22.9527V24.7487H15.1601V22.9527C15.1601 22.4827 15.5039 22.2372 15.8827 22.2372C16.2616 22.2372 16.6053 22.4827 16.6053 22.9527V28.5019H15.1601ZM17.3727 22.8826C17.3727 22.4196 17.7095 22.2372 18.1023 22.2372C18.4952 22.2372 18.8319 22.4196 18.8319 22.8826C18.8319 23.3456 18.4952 23.528 18.1023 23.528C17.7095 23.528 17.3727 23.3456 17.3727 22.8826ZM17.3797 28.5019V24.5312C17.3797 24.0471 17.7095 23.8297 18.1023 23.8297C18.4952 23.8297 18.8249 24.0471 18.8249 24.5312V28.5019H17.3797ZM23.5491 24.4821V28.2423C23.5491 29.014 23.2264 29.9681 21.3393 30.0453C21.0797 30.0593 20.5536 29.9892 20.322 29.8559C20.1116 29.7296 20.0064 29.4279 20.0976 29.1824C20.1817 28.9579 20.4132 28.8106 20.6518 28.8457C20.8552 28.8737 21.0797 28.9088 21.3393 28.9088C21.9356 28.9088 22.1952 28.5931 22.1952 28.2774V28.1161C21.9496 28.3616 21.6129 28.5019 21.1849 28.5019C20.2589 28.5019 19.4942 28.0599 19.4942 26.5937V25.7168C19.4942 24.2366 20.2659 23.7806 21.192 23.7806C21.5427 23.7806 21.9286 23.9139 22.1952 24.1734C22.3074 23.9139 22.567 23.7806 22.8476 23.7806C23.2194 23.7806 23.5491 24.0191 23.5491 24.4821ZM20.9394 25.6186V26.72C20.9394 27.1971 21.2902 27.3584 21.5357 27.3584C21.7742 27.3584 22.139 27.2041 22.139 26.7551V25.5835C22.139 25.1345 21.7742 24.9802 21.5357 24.9802C21.2902 24.9802 20.9394 25.1415 20.9394 25.6186ZM28.3123 28.5019H26.8672V25.6256C26.8672 25.1486 26.5445 24.9872 26.2919 24.9872C26.0464 24.9872 25.7096 25.1415 25.7096 25.5905V28.5019H24.2855V22.9387C24.2855 22.4757 24.6293 22.2372 25.0011 22.2372C25.3729 22.2372 25.7096 22.4757 25.7096 22.9387V24.1173C25.9552 23.9068 26.2709 23.7806 26.6427 23.7806C27.5617 23.7806 28.3123 24.2366 28.3123 25.7168V28.5019Z"/>
</mask>
<path d="M15.1601 28.5019V25.9694H13.3853V28.5019H11.9401V22.9527C11.9401 22.4827 12.2838 22.2372 12.6627 22.2372C13.0415 22.2372 13.3853 22.4827 13.3853 22.9527V24.7487H15.1601V22.9527C15.1601 22.4827 15.5039 22.2372 15.8827 22.2372C16.2616 22.2372 16.6053 22.4827 16.6053 22.9527V28.5019H15.1601ZM17.3727 22.8826C17.3727 22.4196 17.7095 22.2372 18.1023 22.2372C18.4952 22.2372 18.8319 22.4196 18.8319 22.8826C18.8319 23.3456 18.4952 23.528 18.1023 23.528C17.7095 23.528 17.3727 23.3456 17.3727 22.8826ZM17.3797 28.5019V24.5312C17.3797 24.0471 17.7095 23.8297 18.1023 23.8297C18.4952 23.8297 18.8249 24.0471 18.8249 24.5312V28.5019H17.3797ZM23.5491 24.4821V28.2423C23.5491 29.014 23.2264 29.9681 21.3393 30.0453C21.0797 30.0593 20.5536 29.9892 20.322 29.8559C20.1116 29.7296 20.0064 29.4279 20.0976 29.1824C20.1817 28.9579 20.4132 28.8106 20.6518 28.8457C20.8552 28.8737 21.0797 28.9088 21.3393 28.9088C21.9356 28.9088 22.1952 28.5931 22.1952 28.2774V28.1161C21.9496 28.3616 21.6129 28.5019 21.1849 28.5019C20.2589 28.5019 19.4942 28.0599 19.4942 26.5937V25.7168C19.4942 24.2366 20.2659 23.7806 21.192 23.7806C21.5427 23.7806 21.9286 23.9139 22.1952 24.1734C22.3074 23.9139 22.567 23.7806 22.8476 23.7806C23.2194 23.7806 23.5491 24.0191 23.5491 24.4821ZM20.9394 25.6186V26.72C20.9394 27.1971 21.2902 27.3584 21.5357 27.3584C21.7742 27.3584 22.139 27.2041 22.139 26.7551V25.5835C22.139 25.1345 21.7742 24.9802 21.5357 24.9802C21.2902 24.9802 20.9394 25.1415 20.9394 25.6186ZM28.3123 28.5019H26.8672V25.6256C26.8672 25.1486 26.5445 24.9872 26.2919 24.9872C26.0464 24.9872 25.7096 25.1415 25.7096 25.5905V28.5019H24.2855V22.9387C24.2855 22.4757 24.6293 22.2372 25.0011 22.2372C25.3729 22.2372 25.7096 22.4757 25.7096 22.9387V24.1173C25.9552 23.9068 26.2709 23.7806 26.6427 23.7806C27.5617 23.7806 28.3123 24.2366 28.3123 25.7168V28.5019Z" fill="black"/>
<path d="M15.1601 28.5019H14.5755V29.0865H15.1601V28.5019ZM15.1601 25.9694H15.7448V25.3847H15.1601V25.9694ZM13.3853 25.9694V25.3847H12.8006V25.9694H13.3853ZM13.3853 28.5019V29.0865H13.9699V28.5019H13.3853ZM11.9401 28.5019H11.3555V29.0865H11.9401V28.5019ZM13.3853 24.7487H12.8006V25.3333H13.3853V24.7487ZM15.1601 24.7487V25.3333H15.7448V24.7487H15.1601ZM16.6053 28.5019V29.0865H17.1899V28.5019H16.6053ZM15.7448 28.5019V25.9694H14.5755V28.5019H15.7448ZM15.1601 25.3847H13.3853V26.554H15.1601V25.3847ZM12.8006 25.9694V28.5019H13.9699V25.9694H12.8006ZM13.3853 27.9173H11.9401V29.0865H13.3853V27.9173ZM12.5247 28.5019V22.9527H11.3555V28.5019H12.5247ZM12.5247 22.9527C12.5247 22.9074 12.5328 22.883 12.5372 22.8727C12.5415 22.8627 12.5459 22.8573 12.5507 22.853C12.5613 22.8434 12.5958 22.8218 12.6627 22.8218V21.6526C12.3507 21.6526 12.0239 21.7537 11.7679 21.9844C11.5028 22.2234 11.3555 22.5644 11.3555 22.9527H12.5247ZM12.6627 22.8218C12.7295 22.8218 12.764 22.8434 12.7746 22.853C12.7794 22.8573 12.7839 22.8627 12.7882 22.8727C12.7926 22.883 12.8006 22.9074 12.8006 22.9527H13.9699C13.9699 22.5644 13.8226 22.2234 13.5574 21.9844C13.3014 21.7537 12.9746 21.6526 12.6627 21.6526V22.8218ZM12.8006 22.9527V24.7487H13.9699V22.9527H12.8006ZM13.3853 25.3333H15.1601V24.1641H13.3853V25.3333ZM15.7448 24.7487V22.9527H14.5755V24.7487H15.7448ZM15.7448 22.9527C15.7448 22.9074 15.7528 22.883 15.7572 22.8727C15.7615 22.8627 15.766 22.8573 15.7708 22.853C15.7814 22.8434 15.8159 22.8218 15.8827 22.8218V21.6526C15.5708 21.6526 15.244 21.7537 14.988 21.9844C14.7228 22.2234 14.5755 22.5644 14.5755 22.9527H15.7448ZM15.8827 22.8218C15.9496 22.8218 15.9841 22.8434 15.9947 22.853C15.9995 22.8573 16.0039 22.8627 16.0082 22.8727C16.0126 22.883 16.0207 22.9074 16.0207 22.9527H17.1899C17.1899 22.5644 17.0426 22.2234 16.7775 21.9844C16.5215 21.7537 16.1947 21.6526 15.8827 21.6526V22.8218ZM16.0207 22.9527V28.5019H17.1899V22.9527H16.0207ZM16.6053 27.9173H15.1601V29.0865H16.6053V27.9173ZM17.3797 28.5019H16.7951V29.0865H17.3797V28.5019ZM18.8249 28.5019V29.0865H19.4095V28.5019H18.8249ZM17.9573 22.8826C17.9573 22.8383 17.9652 22.8251 17.9629 22.8301C17.9599 22.8366 17.9536 22.8443 17.9487 22.848C17.9459 22.8502 17.9536 22.8433 17.9804 22.8358C18.0075 22.8282 18.0481 22.8218 18.1023 22.8218V21.6526C17.8267 21.6526 17.5014 21.7151 17.2317 21.9245C16.9389 22.1518 16.7881 22.493 16.7881 22.8826H17.9573ZM18.1023 22.8218C18.1566 22.8218 18.1971 22.8282 18.2243 22.8358C18.2511 22.8433 18.2587 22.8502 18.256 22.848C18.2511 22.8443 18.2448 22.8366 18.2418 22.8301C18.2395 22.8251 18.2473 22.8383 18.2473 22.8826H19.4166C19.4166 22.493 19.2658 22.1518 18.973 21.9245C18.7032 21.7151 18.378 21.6526 18.1023 21.6526V22.8218ZM18.2473 22.8826C18.2473 22.9269 18.2395 22.9401 18.2418 22.935C18.2448 22.9285 18.2511 22.9209 18.256 22.9171C18.2587 22.915 18.2511 22.9218 18.2243 22.9294C18.1971 22.937 18.1566 22.9434 18.1023 22.9434V24.1126C18.378 24.1126 18.7032 24.0501 18.973 23.8407C19.2658 23.6134 19.4166 23.2722 19.4166 22.8826H18.2473ZM18.1023 22.9434C18.0481 22.9434 18.0075 22.937 17.9804 22.9294C17.9536 22.9218 17.9459 22.915 17.9487 22.9171C17.9536 22.9209 17.9599 22.9285 17.9629 22.935C17.9652 22.9401 17.9573 22.9269 17.9573 22.8826H16.7881C16.7881 23.2722 16.9389 23.6134 17.2317 23.8407C17.5014 24.0501 17.8267 24.1126 18.1023 24.1126V22.9434ZM17.9644 28.5019V24.5312H16.7951V28.5019H17.9644ZM17.9644 24.5312C17.9644 24.4768 17.9735 24.4507 17.9766 24.4432C17.9783 24.4392 17.9793 24.438 17.979 24.4384C17.979 24.4385 17.9788 24.4387 17.9786 24.4389C17.9783 24.4392 17.9782 24.4393 17.9783 24.4392C17.9783 24.4392 17.9798 24.4379 17.9836 24.4358C17.9875 24.4337 17.9941 24.4306 18.0041 24.4273C18.0247 24.4206 18.0572 24.4143 18.1023 24.4143V23.2451C17.8044 23.2451 17.4739 23.3274 17.2092 23.5586C16.9319 23.8007 16.7951 24.1468 16.7951 24.5312H17.9644ZM18.1023 24.4143C18.1475 24.4143 18.18 24.4206 18.2006 24.4273C18.2106 24.4306 18.2172 24.4337 18.2211 24.4358C18.2249 24.4379 18.2264 24.4392 18.2264 24.4392C18.2264 24.4393 18.2263 24.4392 18.2261 24.4389C18.2259 24.4387 18.2257 24.4385 18.2256 24.4384C18.2254 24.438 18.2263 24.4392 18.228 24.4432C18.2312 24.4507 18.2403 24.4768 18.2403 24.5312H19.4095C19.4095 24.1468 19.2728 23.8007 18.9955 23.5586C18.7308 23.3274 18.4003 23.2451 18.1023 23.2451V24.4143ZM18.2403 24.5312V28.5019H19.4095V24.5312H18.2403ZM18.8249 27.9173H17.3797V29.0865H18.8249V27.9173ZM21.3393 30.0453L21.3154 29.4611L21.3077 29.4615L21.3393 30.0453ZM20.322 29.8559L20.0212 30.3573L20.0303 30.3625L20.322 29.8559ZM20.0976 29.1824L19.5502 28.9771L19.5495 28.9789L20.0976 29.1824ZM20.6518 28.8457L20.5667 29.4241L20.5719 29.4248L20.6518 28.8457ZM22.1952 28.1161H22.7798V26.7047L21.7818 27.7027L22.1952 28.1161ZM22.1952 24.1734L21.7873 24.5923L22.3951 25.184L22.7317 24.4055L22.1952 24.1734ZM22.9645 24.4821V28.2423H24.1337V24.4821H22.9645ZM22.9645 28.2423C22.9645 28.5555 22.8982 28.8162 22.7213 29.0088C22.547 29.1986 22.1688 29.4263 21.3154 29.4612L21.3632 30.6294C22.3969 30.5872 23.1236 30.2992 23.5824 29.7998C24.0387 29.303 24.1337 28.7009 24.1337 28.2423H22.9645ZM21.3077 29.4615C21.2341 29.4655 21.0829 29.4572 20.9171 29.4293C20.8377 29.416 20.7652 29.3998 20.7061 29.3825C20.6768 29.374 20.6537 29.366 20.6365 29.3592C20.6187 29.3521 20.6121 29.3483 20.6137 29.3492L20.0303 30.3625C20.2408 30.4837 20.5167 30.5476 20.7232 30.5824C20.9432 30.6194 21.1849 30.6391 21.3708 30.6291L21.3077 29.4615ZM20.6228 29.3546C20.6398 29.3648 20.6479 29.3743 20.6502 29.3774C20.6525 29.3804 20.6517 29.3802 20.6505 29.3766C20.65 29.3751 20.6496 29.3736 20.6494 29.3723C20.6492 29.371 20.6492 29.3703 20.6492 29.3705C20.6492 29.3707 20.6492 29.3763 20.6456 29.386L19.5495 28.9789C19.3643 29.4774 19.5597 30.0803 20.0213 30.3572L20.6228 29.3546ZM20.6449 29.3877C20.6401 29.4006 20.6323 29.409 20.6234 29.4144C20.6136 29.4205 20.5935 29.428 20.5667 29.4241L20.7368 28.2673C20.2072 28.1894 19.7242 28.513 19.5502 28.9771L20.6449 29.3877ZM20.5719 29.4248C20.7634 29.4512 21.0313 29.4934 21.3393 29.4934V28.3242C21.1282 28.3242 20.9471 28.2963 20.7316 28.2665L20.5719 29.4248ZM21.3393 29.4934C21.7382 29.4934 22.0985 29.387 22.3692 29.1571C22.6437 28.9241 22.7798 28.6012 22.7798 28.2774H21.6105C21.6105 28.2693 21.6168 28.2622 21.6124 28.2659C21.6043 28.2728 21.5366 28.3242 21.3393 28.3242V29.4934ZM22.7798 28.2774V28.1161H21.6105V28.2774H22.7798ZM21.7818 27.7027C21.6577 27.8268 21.4754 27.9173 21.1849 27.9173V29.0865C21.7504 29.0865 22.2416 28.8964 22.6085 28.5295L21.7818 27.7027ZM21.1849 27.9173C20.8055 27.9173 20.5543 27.8263 20.3966 27.6753C20.2436 27.5289 20.0788 27.2303 20.0788 26.5937H18.9096C18.9096 27.4234 19.1272 28.0789 19.5881 28.52C20.0442 28.9565 20.6384 29.0865 21.1849 29.0865V27.9173ZM20.0788 26.5937V25.7168H18.9096V26.5937H20.0788ZM20.0788 25.7168C20.0788 25.0733 20.2454 24.7658 20.4026 24.6135C20.5635 24.4577 20.8165 24.3652 21.192 24.3652V23.1959C20.6413 23.1959 20.0456 23.3315 19.5891 23.7737C19.129 24.2194 18.9096 24.8801 18.9096 25.7168H20.0788ZM21.192 24.3652C21.4111 24.3652 21.6439 24.4526 21.7873 24.5923L22.603 23.7546C22.2132 23.3751 21.6743 23.1959 21.192 23.1959V24.3652ZM22.7317 24.4055C22.7349 24.3981 22.7383 24.393 22.7504 24.386C22.7658 24.3771 22.798 24.3652 22.8476 24.3652V23.1959C22.3903 23.1959 21.8839 23.4203 21.6586 23.9414L22.7317 24.4055ZM22.8476 24.3652C22.9119 24.3652 22.9393 24.3855 22.9439 24.3897C22.946 24.3917 22.9491 24.3948 22.9528 24.4034C22.9566 24.4125 22.9645 24.4364 22.9645 24.4821H24.1337C24.1337 24.1021 23.9934 23.7643 23.7316 23.5257C23.4785 23.2949 23.1551 23.1959 22.8476 23.1959V24.3652ZM20.3548 25.6186V26.72H21.524V25.6186H20.3548ZM20.3548 26.72C20.3548 27.1179 20.5089 27.4457 20.7683 27.6648C21.0089 27.8679 21.2985 27.943 21.5357 27.943V26.7738C21.5363 26.7738 21.5311 26.7736 21.5246 26.7714C21.519 26.7695 21.5191 26.7684 21.5227 26.7714C21.5246 26.7731 21.5268 26.7754 21.5289 26.7781C21.531 26.7809 21.5319 26.7827 21.5318 26.7826C21.5318 26.7824 21.53 26.7784 21.5281 26.7691C21.5262 26.7597 21.524 26.7438 21.524 26.72H20.3548ZM21.5357 27.943C21.7643 27.943 22.0477 27.8729 22.2871 27.6855C22.5489 27.4806 22.7236 27.1604 22.7236 26.7551H21.5544C21.5544 26.7715 21.5528 26.7805 21.5521 26.7836C21.5514 26.7866 21.5513 26.7856 21.5531 26.7821C21.5548 26.7786 21.5573 26.7747 21.5602 26.7711C21.5631 26.7676 21.5655 26.7656 21.5665 26.7647C21.568 26.7636 21.5642 26.7667 21.5539 26.77C21.5491 26.7715 21.5444 26.7726 21.5403 26.7732C21.5362 26.7739 21.5344 26.7738 21.5357 26.7738V27.943ZM22.7236 26.7551V25.5835H21.5544V26.7551H22.7236ZM22.7236 25.5835C22.7236 25.1782 22.5489 24.858 22.2871 24.6531C22.0477 24.4657 21.7643 24.3956 21.5357 24.3956V25.5648C21.5344 25.5648 21.5362 25.5647 21.5403 25.5654C21.5444 25.566 21.5491 25.5671 21.5539 25.5686C21.5642 25.5719 21.568 25.575 21.5665 25.5739C21.5655 25.573 21.5631 25.571 21.5602 25.5675C21.5573 25.5639 21.5548 25.56 21.5531 25.5565C21.5513 25.553 21.5514 25.552 21.5521 25.555C21.5528 25.5581 21.5544 25.5671 21.5544 25.5835H22.7236ZM21.5357 24.3956C21.2985 24.3956 21.0089 24.4707 20.7683 24.6738C20.5089 24.8929 20.3548 25.2207 20.3548 25.6186H21.524C21.524 25.5948 21.5262 25.5789 21.5281 25.5695C21.53 25.5602 21.5318 25.5562 21.5318 25.556C21.5319 25.5559 21.531 25.5577 21.5289 25.5605C21.5268 25.5632 21.5246 25.5655 21.5227 25.5672C21.5191 25.5702 21.519 25.5691 21.5246 25.5672C21.5311 25.565 21.5363 25.5648 21.5357 25.5648V24.3956ZM28.3123 28.5019V29.0865H28.897V28.5019H28.3123ZM26.8672 28.5019H26.2826V29.0865H26.8672V28.5019ZM25.7096 28.5019V29.0865H26.2943V28.5019H25.7096ZM24.2855 28.5019H23.7009V29.0865H24.2855V28.5019ZM25.7096 24.1173H25.125V25.3884L26.0901 24.5612L25.7096 24.1173ZM28.3123 27.9173H26.8672V29.0865H28.3123V27.9173ZM27.4518 28.5019V25.6256H26.2826V28.5019H27.4518ZM27.4518 25.6256C27.4518 25.2444 27.3168 24.9169 27.0631 24.6909C26.8241 24.4781 26.5328 24.4026 26.2919 24.4026V25.5718C26.2943 25.5718 26.2974 25.5724 26.2985 25.5728C26.2988 25.5729 26.2932 25.571 26.2854 25.5641C26.2816 25.5607 26.2783 25.5569 26.2757 25.5534C26.2732 25.5498 26.2725 25.548 26.273 25.5491C26.2738 25.5509 26.2826 25.5726 26.2826 25.6256H27.4518ZM26.2919 24.4026C26.0597 24.4026 25.775 24.473 25.5368 24.6694C25.2789 24.882 25.125 25.2025 25.125 25.5905H26.2943C26.2943 25.571 26.2961 25.559 26.2973 25.5533C26.2984 25.5476 26.2992 25.5468 26.298 25.5495C26.2968 25.5522 26.2945 25.5563 26.2909 25.5609C26.2874 25.5654 26.2837 25.569 26.2806 25.5716C26.2746 25.5765 26.2728 25.576 26.2781 25.5743C26.2804 25.5736 26.2833 25.5728 26.2864 25.5724C26.2896 25.5719 26.2916 25.5718 26.2919 25.5718V24.4026ZM25.125 25.5905V28.5019H26.2943V25.5905H25.125ZM25.7096 27.9173H24.2855V29.0865H25.7096V27.9173ZM24.8701 28.5019V22.9387H23.7009V28.5019H24.8701ZM24.8701 22.9387C24.8701 22.8963 24.8777 22.8747 24.8812 22.8669C24.8845 22.8592 24.8878 22.8552 24.8919 22.8516C24.9017 22.8429 24.9357 22.8218 25.0011 22.8218V21.6526C24.6946 21.6526 24.3709 21.7507 24.1158 21.977C23.8506 22.2124 23.7009 22.5507 23.7009 22.9387H24.8701ZM25.0011 22.8218C25.0659 22.8218 25.0967 22.8425 25.1039 22.849C25.1069 22.8518 25.1102 22.8554 25.1136 22.8635C25.1172 22.872 25.125 22.8947 25.125 22.9387H26.2943C26.2943 22.5547 26.1492 22.2166 25.8857 21.9796C25.6316 21.7511 25.3081 21.6526 25.0011 21.6526V22.8218ZM25.125 22.9387V24.1173H26.2943V22.9387H25.125ZM26.0901 24.5612C26.2302 24.4411 26.4111 24.3652 26.6427 24.3652V23.1959C26.1307 23.1959 25.6802 23.3726 25.3292 23.6734L26.0901 24.5612ZM26.6427 24.3652C27.0133 24.3652 27.2569 24.4569 27.4112 24.6094C27.5641 24.7606 27.7277 25.0689 27.7277 25.7168H28.897C28.897 24.8844 28.6852 24.2247 28.2331 23.7778C27.7823 23.3322 27.1911 23.1959 26.6427 23.1959V24.3652ZM27.7277 25.7168V28.5019H28.897V25.7168H27.7277Z" fill="#8CF200" mask="url(#path-7-outside-1_69_418)"/>
</svg>
